<?xml version="1.0" encoding="UTF-8"?>
<svg version="1.1" xmlns="http://www.w3.org/2000/svg" width="512" height="512">
<path d="M0 0 C1.93527142 0.95454667 3.8329214 1.98709091 5.69921875 3.0703125 C6.81248535 3.71170166 7.92575195 4.35309082 9.07275391 5.01391602 C10.27773761 5.71749364 11.48265113 6.4211915 12.6875 7.125 C13.94411816 7.85213915 15.20112306 8.57861033 16.45849609 9.30444336 C19.04627864 10.7996765 21.63175689 12.2987785 24.21533203 13.80126953 C28.78153198 16.45609767 33.3593331 19.09067624 37.93676758 21.72607422 C42.22090654 24.19374351 46.50148784 26.66755173 50.78222656 29.14111328 C56.18670645 32.26324605 61.59347412 35.38141204 67 38.5 C69.1666775 39.74998122 71.33334417 40.99998121 73.5 42.25 C75.10875 43.178125 75.10875 43.178125 76.75 44.125 C97.33333333 56 117.91666667 67.875 138.5 79.75 C139.57266113 80.36883057 140.64532227 80.98766113 141.75048828 81.62524414 C143.91557071 82.87435518 146.08060982 84.12354129 148.24560547 85.37280273 C153.68615706 88.51202309 159.12747216 91.64990563 164.5703125 94.78515625 C175.39364167 101.02127925 186.20821351 107.27191602 197 113.5625 C197.9605127 114.12203369 198.92102539 114.68156738 199.91064453 115.25805664 C200.82700684 115.79293701 201.74336914 116.32781738 202.6875 116.87890625 C203.47511719 117.3385376 204.26273437 117.79816895 205.07421875 118.27172852 C206.52248047 119.1272229 206.52248047 119.1272229 208 120 C208.80221147 120.36681684 209.60442294 120.73363368 210.43094385 121.11156619 C217.4304132 124.61341573 217.4304132 124.61341573 218.92275357 128.24632239 C219.26439942 131.04549079 219.28579367 133.69712614 219.20254517 136.51620483 C219.21536154 138.10422942 219.21536154 138.10422942 219.22843683 139.72433531 C219.24491358 143.27285966 219.1899198 146.8166576 219.13525391 150.36474609 C219.13243323 152.90746957 219.13401638 155.45020119 219.13967896 157.99291992 C219.14195627 163.46753469 219.11359769 168.94062679 219.05730057 174.41492844 C218.9759616 182.32944541 218.94997973 190.2433864 218.93742065 198.15827604 C218.91554454 210.99988736 218.84902431 223.84086278 218.75439453 236.68212891 C218.66257704 249.15475283 218.59180667 261.62720392 218.54931641 274.10009766 C218.54668917 274.86916617 218.54406194 275.63823469 218.54135509 276.43060832 C218.52830453 280.28887381 218.51566749 284.14714052 218.50323606 288.00540805 C218.39960068 320.0040675 218.22349846 352.00194541 218 384 C217.30519028 384.38777115 216.61038055 384.7755423 215.89451599 385.17506409 C212.67777999 386.97111435 209.46193435 388.76875329 206.24609375 390.56640625 C205.15373413 391.17601196 204.06137451 391.78561768 202.93591309 392.41369629 C195.60141751 396.51553565 188.31467964 400.69189221 181.0625 404.9375 C179.40335571 405.90816406 179.40335571 405.90816406 177.71069336 406.8984375 C176.84581299 407.40632813 175.98093262 407.91421875 175.08984375 408.4375 C168.78429581 412.1321331 162.45705564 415.78852681 156.125 419.4375 C155.04484619 420.06003662 153.96469238 420.68257324 152.85180664 421.32397461 C150.66203666 422.58576826 148.47217645 423.84740534 146.28222656 425.10888672 C140.85340058 428.23680148 135.42680719 431.36858448 130 434.5 C127.83334417 435.75001879 125.6666775 437.00001878 123.5 438.25 C122.4275 438.86875 121.355 439.4875 120.25 440.125 C110.49999999 445.75 110.49999999 445.75 107.24951172 447.62524414 C105.08442929 448.87435518 102.91939018 450.12354129 100.75439453 451.37280273 C95.31384294 454.51202309 89.87252784 457.64990563 84.4296875 460.78515625 C73.97793728 466.80747371 63.53706147 472.84678996 53.125 478.9375 C40.92570421 486.07107285 28.67638143 493.12079952 16.36621094 500.06152344 C13.97886537 501.43630758 11.63521916 502.83591074 9.29785156 504.29003906 C8.68019928 504.66552887 8.062547 505.04101868 7.42617798 505.42788696 C5.70176305 506.4780412 3.98843989 507.54634637 2.27587891 508.61572266 C-1.76175199 510.32189103 -3.7909584 510.10615576 -8 509 C-10.95239258 507.65576172 -10.95239258 507.65576172 -13.89453125 505.9296875 C-15.00135254 505.28829834 -16.10817383 504.64690918 -17.24853516 503.98608398 C-18.4366167 503.28254679 -19.62460247 502.57884785 -20.8125 501.875 C-22.05973359 501.14740262 -23.3076295 500.4209395 -24.55615234 499.69555664 C-27.12324955 498.20216878 -29.68678077 496.70292769 -32.24755859 495.19873047 C-36.79387657 492.53054058 -41.36278545 489.90201802 -45.93237305 487.27392578 C-49.14723462 485.42471046 -52.35919206 483.57054692 -55.5703125 481.71484375 C-62.04510022 477.97348344 -68.52236343 474.23642517 -75 470.5 C-77.1666775 469.25001878 -79.33334417 468.00001879 -81.5 466.75 C-82.5725 466.13125 -83.645 465.5125 -84.75 464.875 C-105.33333333 453 -125.91666667 441.125 -146.5 429.25 C-147.57266113 428.63116943 -148.64532227 428.01233887 -149.75048828 427.37475586 C-151.91557071 426.12564482 -154.08060982 424.87645871 -156.24560547 423.62719727 C-161.68615706 420.48797691 -167.12747216 417.35009437 -172.5703125 414.21484375 C-184.40125948 407.39778476 -196.21852494 400.55886664 -207.99853516 393.65405273 C-208.91812012 393.11594971 -209.83770508 392.57784668 -210.78515625 392.0234375 C-211.57801025 391.55856934 -212.37086426 391.09370117 -213.18774414 390.61474609 C-215.67269279 389.18793384 -218.17017855 387.78917442 -220.67576599 386.39907837 C-221.48570228 385.94958643 -222.29563856 385.50009449 -223.13011837 385.03698158 C-223.74717931 384.69477766 -224.36424025 384.35257374 -225 384 C-225.54819813 351.3713713 -225.97257556 318.74407551 -226.22556791 286.11188888 C-226.25558277 282.25443527 -226.28664671 278.39699078 -226.31835938 274.53955078 C-226.32465483 273.77164452 -226.33095028 273.00373825 -226.3374365 272.2125621 C-226.441709 259.79839875 -226.63083563 247.38691845 -226.85166711 234.97434388 C-227.07657681 222.22564414 -227.20950481 209.47834333 -227.25812387 196.72774136 C-227.29096971 188.86592361 -227.39440355 181.01168736 -227.58999521 173.15220679 C-227.73260877 167.11164478 -227.74682217 161.07751553 -227.71458435 155.03507996 C-227.72116156 152.56682427 -227.76858774 150.09826939 -227.8609314 147.63173294 C-228.40234337 132.4178551 -228.40234337 132.4178551 -225 126 C-219.02356195 120.04836097 -211.42854305 116.57355311 -203.78202152 113.23877931 C-200.30236967 111.68935897 -197.1336725 109.858408 -193.8828125 107.87890625 C-191.96389348 106.77282692 -190.04463128 105.66734273 -188.125 104.5625 C-185.94009462 103.30340198 -183.75519908 102.04428689 -181.5703125 100.78515625 C-180.48524414 100.16012207 -179.40017578 99.53508789 -178.28222656 98.89111328 C-172.85340058 95.76319852 -167.42680719 92.63141552 -162 89.5 C-159.83334417 88.24998121 -157.6666775 86.99998122 -155.5 85.75 C-154.4275 85.13125 -153.355 84.5125 -152.25 83.875 C-142.5 78.25 -142.5 78.25 -139.24951172 76.37475586 C-137.08442929 75.12564482 -134.91939018 73.87645871 -132.75439453 72.62719727 C-127.31384294 69.48797691 -121.87252784 66.35009437 -116.4296875 63.21484375 C-105.97793801 57.19252671 -95.53700452 51.15330663 -85.125 45.0625 C-75.85839326 39.64277153 -66.54903194 34.30085219 -57.22161865 28.98681641 C-48.86908326 24.22724861 -40.54740211 19.41772236 -32.25 14.5625 C-30.30089176 13.42689363 -28.35167686 12.29147032 -26.40234375 11.15625 C-22.96626808 9.15425152 -19.5430862 7.13282304 -16.12890625 5.09375 C-14.69040487 4.24948744 -13.25162443 3.40570007 -11.8125 2.5625 C-11.18311523 2.17843994 -10.55373047 1.79437988 -9.90527344 1.39868164 C-6.06811391 -0.82369986 -4.21464585 -1.23297928 0 0 Z " fill="#FDFEFE" transform="translate(260,2)"/>
<path d="M0 0 C1.93527142 0.95454667 3.8329214 1.98709091 5.69921875 3.0703125 C6.81248535 3.71170166 7.92575195 4.35309082 9.07275391 5.01391602 C10.27773761 5.71749364 11.48265113 6.4211915 12.6875 7.125 C13.94411816 7.85213915 15.20112306 8.57861033 16.45849609 9.30444336 C19.04627864 10.7996765 21.63175689 12.2987785 24.21533203 13.80126953 C28.78153198 16.45609767 33.3593331 19.09067624 37.93676758 21.72607422 C42.22090654 24.19374351 46.50148784 26.66755173 50.78222656 29.14111328 C56.18670645 32.26324605 61.59347412 35.38141204 67 38.5 C69.1666775 39.74998122 71.33334417 40.99998121 73.5 42.25 C75.10875 43.178125 75.10875 43.178125 76.75 44.125 C97.33333333 56 117.91666667 67.875 138.5 79.75 C139.57266113 80.36883057 140.64532227 80.98766113 141.75048828 81.62524414 C143.91557071 82.87435518 146.08060982 84.12354129 148.24560547 85.37280273 C153.68615706 88.51202309 159.12747216 91.64990563 164.5703125 94.78515625 C175.39364167 101.02127925 186.20821351 107.27191602 197 113.5625 C197.9605127 114.12203369 198.92102539 114.68156738 199.91064453 115.25805664 C200.82700684 115.79293701 201.74336914 116.32781738 202.6875 116.87890625 C203.47511719 117.3385376 204.26273437 117.79816895 205.07421875 118.27172852 C206.52248047 119.1272229 206.52248047 119.1272229 208 120 C208.80221147 120.36681684 209.60442294 120.73363368 210.43094385 121.11156619 C217.4304132 124.61341573 217.4304132 124.61341573 218.92275357 128.24632239 C219.26439942 131.04549079 219.28579367 133.69712614 219.20254517 136.51620483 C219.21536154 138.10422942 219.21536154 138.10422942 219.22843683 139.72433531 C219.24491358 143.27285966 219.1899198 146.8166576 219.13525391 150.36474609 C219.13243323 152.90746957 219.13401638 155.45020119 219.13967896 157.99291992 C219.14195627 163.46753469 219.11359769 168.94062679 219.05730057 174.41492844 C218.9759616 182.32944541 218.94997973 190.2433864 218.93742065 198.15827604 C218.91554454 210.99988736 218.84902431 223.84086278 218.75439453 236.68212891 C218.66257704 249.15475283 218.59180667 261.62720392 218.54931641 274.10009766 C218.54668917 274.86916617 218.54406194 275.63823469 218.54135509 276.43060832 C218.52830453 280.28887381 218.51566749 284.14714052 218.50323606 288.00540805 C218.39960068 320.0040675 218.22349846 352.00194541 218 384 C217.30519028 384.38777115 216.61038055 384.7755423 215.89451599 385.17506409 C212.67777999 386.97111435 209.46193435 388.76875329 206.24609375 390.56640625 C205.15373413 391.17601196 204.06137451 391.78561768 202.93591309 392.41369629 C195.60141751 396.51553565 188.31467964 400.69189221 181.0625 404.9375 C179.40335571 405.90816406 179.40335571 405.90816406 177.71069336 406.8984375 C176.84581299 407.40632813 175.98093262 407.91421875 175.08984375 408.4375 C168.78429581 412.1321331 162.45705564 415.78852681 156.125 419.4375 C155.04484619 420.06003662 153.96469238 420.68257324 152.85180664 421.32397461 C150.66203666 422.58576826 148.47217645 423.84740534 146.28222656 425.10888672 C140.85340058 428.23680148 135.42680719 431.36858448 130 434.5 C127.83334417 435.75001879 125.6666775 437.00001878 123.5 438.25 C122.4275 438.86875 121.355 439.4875 120.25 440.125 C110.49999999 445.75 110.49999999 445.75 107.24951172 447.62524414 C105.08442929 448.87435518 102.91939018 450.12354129 100.75439453 451.37280273 C95.31384294 454.51202309 89.87252784 457.64990563 84.4296875 460.78515625 C73.97793728 466.80747371 63.53706147 472.84678996 53.125 478.9375 C40.92570421 486.07107285 28.67638143 493.12079952 16.36621094 500.06152344 C13.97886537 501.43630758 11.63521916 502.83591074 9.29785156 504.29003906 C8.68019928 504.66552887 8.062547 505.04101868 7.42617798 505.42788696 C5.70176305 506.4780412 3.98843989 507.54634637 2.27587891 508.61572266 C-1.76175199 510.32189103 -3.7909584 510.10615576 -8 509 C-10.95239258 507.65576172 -10.95239258 507.65576172 -13.89453125 505.9296875 C-15.00135254 505.28829834 -16.10817383 504.64690918 -17.24853516 503.98608398 C-18.4366167 503.28254679 -19.62460247 502.57884785 -20.8125 501.875 C-22.05973359 501.14740262 -23.3076295 500.4209395 -24.55615234 499.69555664 C-27.12324955 498.20216878 -29.68678077 496.70292769 -32.24755859 495.19873047 C-36.79387657 492.53054058 -41.36278545 489.90201802 -45.93237305 487.27392578 C-49.14723462 485.42471046 -52.35919206 483.57054692 -55.5703125 481.71484375 C-62.04510022 477.97348344 -68.52236343 474.23642517 -75 470.5 C-77.1666775 469.25001878 -79.33334417 468.00001879 -81.5 466.75 C-82.5725 466.13125 -83.645 465.5125 -84.75 464.875 C-105.33333333 453 -125.91666667 441.125 -146.5 429.25 C-147.57266113 428.63116943 -148.64532227 428.01233887 -149.75048828 427.37475586 C-151.91557071 426.12564482 -154.08060982 424.87645871 -156.24560547 423.62719727 C-161.68615706 420.48797691 -167.12747216 417.35009437 -172.5703125 414.21484375 C-184.40125948 407.39778476 -196.21852494 400.55886664 -207.99853516 393.65405273 C-208.91812012 393.11594971 -209.83770508 392.57784668 -210.78515625 392.0234375 C-211.57801025 391.55856934 -212.37086426 391.09370117 -213.18774414 390.61474609 C-215.67269279 389.18793384 -218.17017855 387.78917442 -220.67576599 386.39907837 C-221.48570228 385.94958643 -222.29563856 385.50009449 -223.13011837 385.03698158 C-223.74717931 384.69477766 -224.36424025 384.35257374 -225 384 C-225.54819813 351.3713713 -225.97257556 318.74407551 -226.22556791 286.11188888 C-226.25558277 282.25443527 -226.28664671 278.39699078 -226.31835938 274.53955078 C-226.32465483 273.77164452 -226.33095028 273.00373825 -226.3374365 272.2125621 C-226.441709 259.79839875 -226.63083563 247.38691845 -226.85166711 234.97434388 C-227.07657681 222.22564414 -227.20950481 209.47834333 -227.25812387 196.72774136 C-227.29096971 188.86592361 -227.39440355 181.01168736 -227.58999521 173.15220679 C-227.73260877 167.11164478 -227.74682217 161.07751553 -227.71458435 155.03507996 C-227.72116156 152.56682427 -227.76858774 150.09826939 -227.8609314 147.63173294 C-228.40234337 132.4178551 -228.40234337 132.4178551 -225 126 C-219.02356195 120.04836097 -211.42854305 116.57355311 -203.78202152 113.23877931 C-200.30236967 111.68935897 -197.1336725 109.858408 -193.8828125 107.87890625 C-191.96389348 106.77282692 -190.04463128 105.66734273 -188.125 104.5625 C-185.94009462 103.30340198 -183.75519908 102.04428689 -181.5703125 100.78515625 C-180.48524414 100.16012207 -179.40017578 99.53508789 -178.28222656 98.89111328 C-172.85340058 95.76319852 -167.42680719 92.63141552 -162 89.5 C-159.83334417 88.24998121 -157.6666775 86.99998122 -155.5 85.75 C-154.4275 85.13125 -153.355 84.5125 -152.25 83.875 C-142.5 78.25 -142.5 78.25 -139.24951172 76.37475586 C-137.08442929 75.12564482 -134.91939018 73.87645871 -132.75439453 72.62719727 C-127.31384294 69.48797691 -121.87252784 66.35009437 -116.4296875 63.21484375 C-105.97793801 57.19252671 -95.53700452 51.15330663 -85.125 45.0625 C-75.85839326 39.64277153 -66.54903194 34.30085219 -57.22161865 28.98681641 C-48.86908326 24.22724861 -40.54740211 19.41772236 -32.25 14.5625 C-30.30089176 13.42689363 -28.35167686 12.29147032 -26.40234375 11.15625 C-22.96626808 9.15425152 -19.5430862 7.13282304 -16.12890625 5.09375 C-14.69040487 4.24948744 -13.25162443 3.40570007 -11.8125 2.5625 C-11.18311523 2.17843994 -10.55373047 1.79437988 -9.90527344 1.39868164 C-6.06811391 -0.82369986 -4.21464585 -1.23297928 0 0 Z M-9.21875 18.23828125 C-10.05833252 18.72280762 -10.89791504 19.20733398 -11.76293945 19.70654297 C-13.11778442 20.5014917 -13.11778442 20.5014917 -14.5 21.3125 C-15.44125732 21.85793457 -16.38251465 22.40336914 -17.35229492 22.96533203 C-19.30072327 24.09511636 -21.24757155 25.22762983 -23.19287109 26.36279297 C-25.71448215 27.83347689 -28.24045107 29.29611685 -30.76953125 30.75390625 C-38.46425813 35.19120425 -46.13837282 39.66343397 -53.80737305 44.14501953 C-63.1993959 49.63298068 -72.61251168 55.07917768 -82.06591797 60.46069336 C-88.73628503 64.26361988 -95.37230041 68.12326129 -102 72 C-110.32871404 76.87171268 -118.68499214 81.69047083 -127.07080078 86.46313477 C-133.69950687 90.2417843 -140.29083553 94.08185568 -146.875 97.9375 C-154.85778394 102.61091435 -162.87569738 107.21427037 -170.9375 111.75 C-180.36121805 117.0523886 -189.70841435 122.46972216 -199 128 C-200.06605469 128.63164062 -201.13210937 129.26328125 -202.23046875 129.9140625 C-206.33979443 132.15199096 -206.33979443 132.15199096 -210 135 C-210.14028209 138.05899208 -210.21480301 141.09666861 -210.24810791 144.15756226 C-210.26949817 145.61728091 -210.26949817 145.61728091 -210.29132056 147.10648882 C-210.33775953 150.39434931 -210.37656216 153.68225213 -210.41503906 156.97021484 C-210.44583678 159.31701894 -210.47681633 161.66382065 -210.50796509 164.01062012 C-210.78233159 185.46907125 -210.94033571 206.92876326 -211.06656265 228.38854027 C-211.08376967 231.26244683 -211.10130987 234.13635115 -211.11914062 237.01025391 C-211.12355902 237.72455054 -211.12797742 238.43884716 -211.13252971 239.17478915 C-211.20603413 250.73043668 -211.34958282 262.28417366 -211.52003863 273.83875267 C-211.69363313 285.70501824 -211.79475477 297.57029075 -211.82835174 309.43778765 C-211.84921598 316.10011013 -211.90503137 322.75922076 -212.03943634 329.42051315 C-212.16480777 335.69450372 -212.20012892 341.96266689 -212.16733932 348.23776245 C-212.17096113 350.53616979 -212.20699259 352.83479731 -212.27836227 355.13209915 C-212.99690347 366.86781273 -212.99690347 366.86781273 -208.13086414 376.99025393 C-203.55334019 380.5071906 -198.57196248 382.88329556 -193.2466464 385.05190873 C-190.24379971 386.3191187 -187.58107542 387.9005792 -184.80859375 389.609375 C-183.92123535 390.12814209 -183.03387695 390.64690918 -182.11962891 391.18139648 C-181.23452637 391.69903564 -180.34942383 392.2166748 -179.4375 392.75 C-167.75120045 399.57506432 -156.03115879 406.34080711 -144.30419922 413.09570312 C-140.97385748 415.01506662 -137.64490852 416.93682353 -134.31640625 418.859375 C-124.34856684 424.61613159 -114.3760793 430.36365676 -104.375 436.0625 C-95.98067687 440.84756897 -87.62960353 445.70413192 -79.28808594 450.58056641 C-68.66191492 456.78963057 -57.99944689 462.93517802 -47.33496094 469.078125 C-42.76555612 471.71138669 -38.19810395 474.34800808 -33.63232422 476.98754883 C-31.40529921 478.27145591 -29.17522124 479.55008423 -26.94189453 480.82299805 C-22.41748261 483.40653811 -17.93536712 485.98832564 -13.609375 488.89453125 C-12.98256836 489.30131104 -12.35576172 489.70809082 -11.70996094 490.12719727 C-10.16180473 491.143755 -8.64150315 492.20242442 -7.125 493.265625 C-1.92964431 494.48653359 1.58964691 491.62521017 6 489 C6.85819336 488.51225098 7.71638672 488.02450195 8.60058594 487.52197266 C11.37445002 485.93610175 14.12551286 484.31524103 16.875 482.6875 C25.88059117 477.39374911 34.92234397 472.16874319 44 467 C53.72171854 461.46098185 63.40895986 455.86624414 73.06689453 450.21655273 C83.59084625 444.06233258 94.15380137 437.97630004 104.71777344 431.89111328 C110.14659942 428.76319852 115.57319281 425.63141552 121 422.5 C123.16665583 421.24998121 125.3333225 419.99998122 127.5 418.75 C128.5725 418.13125 129.645 417.5125 130.75 416.875 C140.5 411.25 140.5 411.25 143.75219727 409.3737793 C145.91159395 408.1279423 148.07093669 406.88201182 150.23022461 405.63598633 C155.75767597 402.44651047 161.28615121 399.25883115 166.81640625 396.07421875 C167.94626953 395.42324219 169.07613281 394.77226562 170.24023438 394.1015625 C172.35445854 392.88349096 174.46900619 391.6659806 176.58398438 390.44921875 C178.54293532 389.32028828 180.48938398 388.16932454 182.42131996 386.99476242 C184.97076926 385.50004226 187.52998107 384.35197913 190.27416039 383.25929642 C198.58864882 379.67705491 198.58864882 379.67705491 203.98188257 372.76496983 C205.59378058 365.92520544 205.22684038 358.90588775 205.07275391 351.92871094 C205.08270053 349.57242795 205.1000031 347.21616628 205.12408447 344.85998535 C205.16732431 338.47833785 205.10457941 332.10174117 205.02008104 325.72066784 C204.95454321 319.71741123 204.96224814 313.71438871 204.96721081 307.71087697 C204.97389359 295.81842048 204.89830118 283.92790926 204.77685547 272.03613281 C204.65914433 260.5044834 204.60258119 248.97463796 204.61279297 237.44238281 C204.6134153 236.73152353 204.61403763 236.02066424 204.61467882 235.28826377 C204.61561312 234.22378986 204.61561312 234.22378986 204.6165663 233.13781142 C204.62696449 220.65941538 204.58534207 208.18175307 204.51585007 195.70355988 C204.48648828 190.3942159 204.47278915 185.08517159 204.47117996 179.77574921 C204.46603309 173.52699089 204.41522335 167.28020728 204.3289566 161.03205872 C204.30425995 158.73840376 204.29480759 156.44452694 204.30163956 154.15074921 C204.3082966 151.02023836 204.25967153 147.89533684 204.19668579 144.76556396 C204.21130533 143.85603462 204.22592487 142.94650527 204.24098742 142.00941443 C204.11000909 138.12758592 203.94155993 135.89840909 201.05666041 133.14572191 C198.76131322 131.59168452 196.4629702 130.26834596 194 129 C192.674224 128.24230165 191.34971623 127.48237284 190.02734375 126.71875 C188.66571265 125.97613299 187.30235109 125.23668227 185.9375 124.5 C178.76524171 120.5709288 171.67903904 116.512348 164.625 112.375 C155.78264438 107.19177087 146.90578309 102.07312118 138 97 C128.27856294 91.46048161 118.59104683 85.86624806 108.93310547 80.21655273 C98.40915375 74.06233258 87.84619863 67.97630004 77.28222656 61.89111328 C70.77128743 58.13971976 64.26336806 54.38309006 57.75488281 50.62744141 C52.31414664 47.48817754 46.87268523 44.35018503 41.4296875 41.21484375 C40.34502197 40.589729 39.26035645 39.96461426 38.14282227 39.32055664 C35.98225807 38.07554867 33.8212946 36.83123332 31.65991211 35.58764648 C26.1339494 32.40365745 20.6245979 29.19456084 15.13671875 25.9453125 C14.03279785 25.29377197 12.92887695 24.64223145 11.79150391 23.97094727 C9.6824073 22.72440196 7.57645807 21.47251175 5.47412109 20.21459961 C4.5352002 19.6603833 3.5962793 19.10616699 2.62890625 18.53515625 C1.3924939 17.79857788 1.3924939 17.79857788 0.13110352 17.04711914 C-3.69992372 15.16474134 -5.76904599 16.22956917 -9.21875 18.23828125 Z " fill="#FBFBFB" transform="translate(260,2)"/>
<path d="M0 0 C2.3581543 1.16064453 2.3581543 1.16064453 4.82421875 2.6328125 C5.75669434 3.18380615 6.68916992 3.7347998 7.64990234 4.30249023 C9.15351318 5.20463257 9.15351318 5.20463257 10.6875 6.125 C12.86025981 7.41086159 15.03345157 8.69599352 17.20703125 9.98046875 C18.32932129 10.6461084 19.45161133 11.31174805 20.60791016 11.99755859 C26.00694148 15.18475126 31.4405284 18.31124675 36.875 21.4375 C39.05994368 22.69653156 41.24483925 23.95564661 43.4296875 25.21484375 C44.51475586 25.83987793 45.59982422 26.46491211 46.71777344 27.10888672 C52.14659942 30.23680148 57.57319281 33.36858448 63 36.5 C65.16665583 37.75001879 67.3333225 39.00001878 69.5 40.25 C73.83333333 42.75 78.16666667 45.25 82.5 47.75 C83.57266113 48.36883057 84.64532227 48.98766113 85.75048828 49.62524414 C87.91557071 50.87435518 90.08060982 52.12354129 92.24560547 53.37280273 C97.68615706 56.51202309 103.12747216 59.64990563 108.5703125 62.78515625 C120.00636805 69.37463222 131.42392693 75.99367837 142.81640625 82.65820312 C150.55688295 87.1777082 158.33638006 91.62678871 166.125 96.0625 C175.01513872 101.12675293 183.87661173 106.2362337 192.6875 111.4375 C194.08669678 112.26229858 194.08669678 112.26229858 195.51416016 113.10375977 C201.87204859 116.87204859 201.87204859 116.87204859 203 118 C203.09804237 121.08451828 203.12990727 124.14666065 203.12025452 127.23158264 C203.12153615 128.70294313 203.12153615 128.70294313 203.12284368 130.20402807 C203.12450146 133.51762862 203.11897226 136.83117944 203.11352539 140.14477539 C203.11324356 142.50942483 203.11340118 144.87407436 203.1139679 147.23872375 C203.11422605 153.01048361 203.10987474 158.78222696 203.10353024 164.55398304 C203.09639628 171.26749115 203.09488634 177.98099688 203.09374207 184.69450825 C203.09155123 196.66784298 203.08489029 208.64117091 203.07543945 220.61450195 C203.06626615 232.24829067 203.05918492 243.88207754 203.05493164 255.51586914 C203.05453756 256.59079346 203.05453756 256.59079346 203.05413551 257.68743343 C203.05283051 261.28233988 203.05156679 264.87724635 203.05032361 268.47215283 C203.03995001 298.31477332 203.02225671 328.15738587 203 358 C202.27457001 358.41806412 201.54914001 358.83612823 200.80172729 359.26686096 C198.04896344 360.8534982 195.29638219 362.44045169 192.54391479 364.02760315 C190.79137511 365.03804666 189.03863478 366.04814213 187.28588867 367.05822754 C179.88430557 371.32655262 172.49835405 375.62061606 165.125 379.9375 C155.85372899 385.35704785 146.54170181 390.70203814 137.21154785 396.01922607 C128.0871716 401.22045129 118.99867226 406.48027878 109.93310547 411.78344727 C99.40915375 417.93766742 88.84619863 424.02369996 78.28222656 430.10888672 C72.85340058 433.23680148 67.42680719 436.36858448 62 439.5 C59.83334417 440.75001879 57.6666775 442.00001878 55.5 443.25 C54.4275 443.86875 53.355 444.4875 52.25 445.125 C49 447 45.75 448.875 42.5 450.75 C41.42637207 451.37044189 40.35274414 451.99088379 39.24658203 452.63012695 C37.09494184 453.86936686 34.93969272 455.10236325 32.78076172 456.32885742 C27.69871156 459.2260183 22.67586875 462.17102479 17.76715088 465.35220337 C15.45953453 466.84232712 13.13040507 468.29676135 10.79882812 469.74902344 C9.16929701 470.78435564 7.57219401 471.87018051 5.9765625 472.95703125 C-1.22520057 477.41173006 -1.22520057 477.41173006 -5.96142578 476.31298828 C-9.16454677 474.76109062 -12.03636511 472.96985106 -15 471 C-17.14453652 469.74849966 -19.29307298 468.50383137 -21.4453125 467.265625 C-23.67395656 465.93055196 -25.90046584 464.59190987 -28.125 463.25 C-30.50836812 461.82207648 -32.89425954 460.39842133 -35.28125 458.9765625 C-35.86331207 458.62971405 -36.44537415 458.2828656 -37.04507446 457.92550659 C-41.85608612 455.06726442 -46.71860345 452.31540949 -51.625 449.625 C-57.95245044 446.15517711 -64.19353098 442.56624496 -70.40136719 438.88696289 C-76.02835235 435.55716793 -81.69405132 432.29927135 -87.375 429.0625 C-100.23000723 421.73542554 -113.03227421 414.32045143 -125.80737305 406.85498047 C-135.1993959 401.36701932 -144.61251168 395.92082232 -154.06591797 390.53930664 C-161.74699812 386.16014982 -169.38122091 381.7026165 -177.01245117 377.23730469 C-184.80796907 372.68119411 -192.63726412 368.18678593 -200.49023438 363.73046875 C-201.71129883 363.03630859 -201.71129883 363.03630859 -202.95703125 362.328125 C-203.66835205 361.9249707 -204.37967285 361.52181641 -205.11254883 361.10644531 C-206.77787749 360.13021074 -208.39382965 359.07078023 -210 358 C-210.31390854 354.83331065 -210.43024777 351.85967191 -210.42132568 348.6885376 C-210.43023905 347.71100958 -210.43915242 346.73348155 -210.44833589 345.72633147 C-210.47448389 342.42978233 -210.47892872 339.13355888 -210.48339844 335.83691406 C-210.49727695 333.48184505 -210.51235011 331.12678282 -210.52853394 328.77172852 C-210.57208833 321.68905728 -210.59006722 314.60645591 -210.60472047 307.52367461 C-210.61244963 304.18917394 -210.62382076 300.8546852 -210.63507843 297.52019501 C-210.67166268 286.4368997 -210.70255785 275.35362187 -210.7127037 264.27026749 C-210.7133624 263.5606204 -210.7140211 262.85097331 -210.71469976 262.11982177 C-210.71535459 261.40846321 -210.71600943 260.69710465 -210.7166841 259.96418977 C-210.71801451 258.52267598 -210.7193542 257.08116221 -210.72070312 255.63964844 C-210.72136741 254.92460576 -210.7220317 254.20956308 -210.72271612 253.47285244 C-210.734558 241.88875583 -210.78690974 230.30522566 -210.85678169 218.72134784 C-210.92792226 206.83124245 -210.96530927 194.94142122 -210.96880746 183.05109954 C-210.97155811 176.37388095 -210.98977557 169.69729933 -211.0432663 163.0202713 C-211.09260365 156.73922385 -211.09922914 150.45957759 -211.07284927 144.17840576 C-211.07053229 141.87170415 -211.08364451 139.56492834 -211.11322403 137.25841522 C-211.15123077 134.11039599 -211.13385813 130.96737824 -211.10247803 127.81939697 C-211.12664724 126.90441067 -211.15081645 125.98942437 -211.17571807 125.04671121 C-211.08495796 121.15946168 -210.95201574 118.91435414 -208.07106829 116.14737654 C-205.77143123 114.58958771 -203.46899155 113.26908401 -201 112 C-199.59208154 111.19562167 -198.18555167 110.38880109 -196.78125 109.578125 C-195.35592567 108.79885735 -193.92878265 108.02290857 -192.5 107.25 C-186.61406276 104.02185529 -180.77420828 100.73660834 -175 97.3125 C-159.88639719 88.35882439 -144.63673705 79.63567921 -129.375 70.9375 C-120.98072129 66.15235174 -112.62960461 61.29586871 -104.28808594 56.41943359 C-93.6517169 50.20441055 -82.97894182 44.05310091 -72.30419922 37.90429688 C-68.97385748 35.98493338 -65.64490852 34.06317647 -62.31640625 32.140625 C-40.32809498 19.44171771 -40.32809498 19.44171771 -29.3737793 13.23486328 C-25.24049311 10.88577291 -21.14522763 8.49431079 -17.09765625 6 C-16.32107666 5.52602783 -15.54449707 5.05205566 -14.74438477 4.5637207 C-13.2930708 3.67379828 -11.84893157 2.77202005 -10.41381836 1.85620117 C-6.40169055 -0.59478741 -4.4856524 -1.3342136 0 0 Z M-10.06640625 18.75390625 C-11.09572266 19.35332031 -12.12503906 19.95273437 -13.18554688 20.5703125 C-14.29994141 21.22773437 -15.41433594 21.88515625 -16.5625 22.5625 C-17.73332347 23.24677945 -18.90455429 23.93036236 -20.07617188 24.61328125 C-22.5121716 26.03391905 -24.94638276 27.45755226 -27.37939453 28.88330078 C-32.90332222 32.11702149 -38.45286201 35.30632155 -44 38.5 C-46.16678881 39.74978826 -48.33345506 40.99978903 -50.5 42.25 C-141.5 94.75 -141.5 94.75 -144.75415039 96.62719727 C-146.90721037 97.86947806 -149.06004478 99.11214988 -151.21264648 100.35522461 C-156.24101461 103.25836112 -161.27139814 106.15778867 -166.31021118 109.04275513 C-168.08432545 110.05877184 -169.85769919 111.07606928 -171.63085938 112.09375 C-173.84815314 113.36582292 -176.06681075 114.63552285 -178.28710938 115.90234375 C-179.29708984 116.48242188 -180.30707031 117.0625 -181.34765625 117.66015625 C-182.66262085 118.41244507 -182.66262085 118.41244507 -184.00415039 119.17993164 C-184.99278076 119.7805542 -185.98141113 120.38117676 -187 121 C-187.72996122 121.25002746 -188.45992245 121.50005491 -189.21200371 121.75765896 C-192.31880072 123.1288059 -193.89264809 124.30338885 -196 127 C-197.93459546 133.6414863 -197.38786017 140.99088266 -197.40258789 147.83789062 C-197.43934851 150.00328707 -197.47970679 152.168625 -197.52339172 154.33389282 C-197.62855026 160.21451809 -197.67431931 166.09413336 -197.70290303 171.97558022 C-197.72264072 175.65335672 -197.75367935 179.33086627 -197.78841972 183.00852966 C-197.90764968 195.84985931 -197.9736912 208.69038211 -197.99731445 221.53222656 C-198.02090513 233.48498531 -198.16846305 245.43195595 -198.37251097 257.38286829 C-198.5417551 267.65591316 -198.61806202 277.92703977 -198.62415689 288.20146704 C-198.62966921 294.33338809 -198.67320249 300.4592119 -198.81260872 306.5896759 C-200.79594341 330.55966309 -200.79594341 330.55966309 -193.63059235 352.3909626 C-188.05448945 357.46485399 -181.9732522 360.11145192 -174.78306007 362.15512276 C-171.0383951 363.29192259 -168.16731575 365.01545105 -164.8828125 367.12109375 C-162.96389348 368.22717308 -161.04463128 369.33265727 -159.125 370.4375 C-156.94009462 371.69659802 -154.75519908 372.95571311 -152.5703125 374.21484375 C-151.48524414 374.83987793 -150.40017578 375.46491211 -149.28222656 376.10888672 C-143.85340058 379.23680148 -138.42680719 382.36858448 -133 385.5 C-130.83334417 386.75001879 -128.6666775 388.00001878 -126.5 389.25 C-113.5 396.75 -100.5 404.25 -87.5 411.75 C-86.42733887 412.36883057 -85.35467773 412.98766113 -84.24951172 413.62524414 C-82.08442929 414.87435518 -79.91939018 416.12354129 -77.75439453 417.37280273 C-72.31384294 420.51202309 -66.87252784 423.64990563 -61.4296875 426.78515625 C-51.72451952 432.37724345 -42.02179297 437.9728053 -32.35302734 443.62768555 C-30.3127096 444.81768362 -28.26884663 446.0016276 -26.22119141 447.17895508 C-21.9873781 449.61924348 -17.82180784 452.06643388 -13.8125 454.86328125 C-7.9440004 459.05076531 -7.9440004 459.05076531 -1.01953125 459.45703125 C2.24939238 457.91541205 5.04075859 456.07371084 8 454 C9.69928949 452.9776471 11.39900574 451.95585518 13.109375 450.95214844 C15.01153423 449.83137833 16.89651466 448.68495744 18.78125 447.53515625 C23.45096059 444.70775767 28.19136509 442.00901662 32.9375 439.3125 C40.65442179 434.92440492 48.33795367 430.48322354 56 426 C64.32863681 421.12815661 72.68499365 416.30952831 81.07080078 411.53686523 C87.69950687 407.7582157 94.29083553 403.91814432 100.875 400.0625 C109.81698355 394.82753503 118.81200024 389.6957223 127.84277344 384.61572266 C134.15329104 381.06021041 140.41530848 377.43320573 146.64575195 373.73950195 C153.080056 369.93185269 159.57297855 366.22940197 166.08056641 362.54858398 C167.71350219 361.6211997 169.33396477 360.67148449 170.94074917 359.69949436 C173.23513372 358.42490335 175.33228979 357.43765157 177.74575138 356.470191 C182.60362891 354.34222207 187.68703296 352.06553213 189.87736201 346.95152402 C191.3388314 340.65104954 191.05262932 334.1842598 190.95678711 327.75805664 C190.97876737 325.58571851 191.00710655 323.41343684 191.04130554 321.24125671 C191.11383457 315.35575496 191.09161862 309.47416127 191.04781413 303.58851171 C191.02044387 298.67030628 191.04104102 293.75279092 191.06205279 288.83459085 C191.11151485 277.22961967 191.08597589 265.62651485 191.01049805 254.02172852 C190.93372099 242.06025895 190.96892573 230.10295197 191.06181139 218.14169031 C191.13850238 207.8608348 191.15271359 197.58124359 191.11547095 187.30016798 C191.09342502 181.1645852 191.09320588 175.03111234 191.15015984 168.89570808 C191.20041907 163.12431401 191.17212671 157.35844696 191.08412361 151.58755684 C191.064624 149.47453536 191.07214406 147.36105913 191.10916138 145.24827194 C191.62798212 134.57639179 191.62798212 134.57639179 187.4533875 125.19721293 C183.69379145 122.04231126 179.5534656 119.89920618 175.07725632 117.93909252 C171.75129124 116.43547985 168.65459097 114.58299085 165.5 112.75 C164.16886207 112.00881003 162.83701459 111.2688901 161.50390625 110.53125 C156.10233852 107.51664912 150.77365862 104.3784312 145.4375 101.25 C137.35097649 96.51317787 129.23079761 91.84436878 121.0625 87.25 C113.77778557 83.15230986 106.53625135 78.99526048 99.34545898 74.73510742 C93.80255258 71.45666094 88.22005678 68.25102604 82.625 65.0625 C70.78392031 58.31318113 58.98248875 51.49768392 47.21484375 44.62109375 C45.1849075 43.43487586 43.15495944 42.2486782 41.125 41.0625 C39.61498413 40.18005615 39.61498413 40.18005615 38.07446289 39.27978516 C30.45236859 34.83188191 22.80164847 30.43619825 15.12548828 26.08227539 C14.33384277 25.63231201 13.54219727 25.18234863 12.7265625 24.71875 C11.95731445 24.28175781 11.18806641 23.84476563 10.39550781 23.39453125 C6.93146836 21.37796038 3.53487833 19.25310629 0.14208984 17.11914062 C-4.03306905 14.93781758 -6.30681446 16.54738511 -10.06640625 18.75390625 Z " fill="#25313F" transform="translate(260,19)"/>
<path d="M0 0 C2.83804106 1.64548208 5.03700184 3.55144146 7.54296875 5.671875 C11.17296875 7.651875 14.80296875 9.631875 18.54296875 11.671875 C18.54296875 20.251875 18.54296875 28.831875 18.54296875 37.671875 C-0.12500575 49.87785833 -0.12500575 49.87785833 -6.171875 49.34375 C-9.29392151 47.7191371 -11.72222843 45.88807265 -14.45703125 43.671875 C-15.29234375 43.29820801 -16.12765625 42.92454102 -16.98828125 42.53955078 C-19.9388305 41.16182791 -22.11885265 39.94951025 -24.45703125 37.671875 C-25.69991501 33.16580842 -25.40813785 28.92758874 -25.08203125 24.296875 C-25.03691406 23.08386719 -24.99179687 21.87085938 -24.9453125 20.62109375 C-24.82766935 17.63295776 -24.66361633 14.65496355 -24.45703125 11.671875 C-6.46047719 -0.61319783 -6.46047719 -0.61319783 0 0 Z " fill="#F89A1F" transform="translate(323.45703125,107.328125)"/>
<path d="M0 0 C2.31 0 4.62 0 7 0 C9.65648978 5.67912332 11.23651356 11.34861734 12.6875 17.4375 C12.91244141 18.35982422 13.13738281 19.28214844 13.36914062 20.23242188 C13.91818939 22.48702639 14.46166299 24.74281841 15 27 C15.176521 26.21761963 15.35304199 25.43523926 15.53491211 24.62915039 C16.3320027 21.10606766 17.1346738 17.58427993 17.9375 14.0625 C18.21529297 12.83080078 18.49308594 11.59910156 18.77929688 10.33007812 C19.04677734 9.16025391 19.31425781 7.99042969 19.58984375 6.78515625 C19.83597412 5.70113525 20.08210449 4.61711426 20.33569336 3.50024414 C21 1 21 1 22 0 C24.67058851 -0.14115161 27.32432238 -0.04247107 30 0 C30.25394531 0.95519531 30.50789063 1.91039063 30.76953125 2.89453125 C31.11717 4.20052549 31.46482727 5.5065148 31.8125 6.8125 C32.14894531 8.07707031 32.48539063 9.34164062 32.83203125 10.64453125 C34.20574227 15.76723286 35.6045062 20.88318939 37 26 C39.31 17.42 41.62 8.84 44 0 C46.64 0 49.28 0 52 0 C49.80673246 8.29444342 47.3564213 16.49450933 44.8125 24.6875 C44.26045898 26.47317383 44.26045898 26.47317383 43.69726562 28.29492188 C42.79979847 31.19712086 41.90068232 34.09879755 41 37 C38.36 37 35.72 37 33 37 C30.68908744 31.22602937 29.08518898 25.58117536 27.8125 19.5 C27.54663086 18.26636719 27.54663086 18.26636719 27.27539062 17.0078125 C26.84484674 15.00636525 26.42164339 13.00334121 26 11 C24.19731698 16.01194383 23.03988629 21.05243727 21.9375 26.25 C21.59488761 27.85989614 21.24994608 29.46929889 20.90234375 31.078125 C20.75273193 31.78356445 20.60312012 32.48900391 20.44897461 33.21582031 C20 35 20 35 19 37 C16.36 37 13.72 37 11 37 C8.26286172 29.99741594 6.02103324 22.87222207 3.8125 15.6875 C3.44447266 14.50865234 3.07644531 13.32980469 2.69726562 12.11523438 C2.34986328 10.98794922 2.00246094 9.86066406 1.64453125 8.69921875 C1.32846924 7.67658936 1.01240723 6.65395996 0.68676758 5.6003418 C0 3 0 3 0 0 Z " fill="#2B3745" transform="translate(206,114)"/>
<path d="M0 0 C2.2770426 3.16255917 2.2741521 6.80081223 2.40625 10.58984375 C2.44363281 11.54697266 2.48101562 12.50410156 2.51953125 13.49023438 C2.57173828 14.98006836 2.57173828 14.98006836 2.625 16.5 C2.69421785 18.46758152 2.76701593 20.43504102 2.84375 22.40234375 C2.87404297 23.27238037 2.90433594 24.14241699 2.93554688 25.03881836 C3.06185536 27.61305186 3.06185536 27.61305186 3.76757812 30.26000977 C3.88552734 31.01983154 4.00347656 31.77965332 4.125 32.5625 C3.465 33.2225 2.805 33.8825 2.125 34.5625 C-1.17214793 34.23278521 -2.4976839 33.9398161 -4.875 31.5625 C-5.82375 32.2225 -6.7725 32.8825 -7.75 33.5625 C-12.2807101 36.16465936 -16.76674411 36.29836266 -21.875 35.5625 C-25.72775675 33.99667373 -27.19526272 32.42589574 -28.875 28.5625 C-29.81815587 22.065204 -29.81815587 22.065204 -27.59765625 18.52734375 C-25.53443933 16.07065269 -23.76364024 14.00682012 -20.875 12.5625 C-18.91862486 12.4655368 -16.95877069 12.43271083 -15 12.4375 C-13.42605469 12.43363281 -13.42605469 12.43363281 -11.8203125 12.4296875 C-9.31823315 12.54251336 -7.25743077 12.83741238 -4.875 13.5625 C-5.15627421 12.08132199 -5.45033732 10.60256751 -5.75 9.125 C-5.91242188 8.30128906 -6.07484375 7.47757813 -6.2421875 6.62890625 C-6.55542969 5.60603516 -6.55542969 5.60603516 -6.875 4.5625 C-12.2481053 1.87594735 -20.12510101 3.56251757 -25.875 4.5625 C-26.1875 2.25 -26.1875 2.25 -25.875 -0.4375 C-18.27105448 -6.52065642 -7.56527638 -5.80004523 0 0 Z " fill="#2B3645" transform="translate(199.875,116.4375)"/>
<path d="M0 0 C2.31 0 4.62 0 7 0 C7 12.21 7 24.42 7 37 C4.03 37 1.06 37 -2 37 C-2.99 37.495 -2.99 37.495 -4 38 C-6.96395382 38.40417552 -9.08904926 38.56382171 -11.69140625 36.953125 C-13.88450678 35.15636794 -15.7209562 33.55808759 -17 31 C-18.04817082 20.15891899 -18.04817082 20.15891899 -15.953125 15.84375 C-14.20602222 13.74722666 -12.44450412 12.22225206 -10 11 C-6.97507898 11.16926453 -4.00748526 11.61332332 -1 12 C-0.67 8.04 -0.34 4.08 0 0 Z " fill="#595F69" transform="translate(314,236)"/>
<path d="M0 0 C17.44827586 0 17.44827586 0 22 3 C24.51419926 5.91971527 24.96340947 7.65848838 25.375 11.5 C24.97335498 15.2486869 24.3404622 17.07442224 22 20 C17.32045985 23.01872121 12.38587877 22.12823521 7 22 C7 26.29 7 30.58 7 35 C4.69 35 2.38 35 0 35 C0 23.45 0 11.9 0 0 Z " fill="#5A5F69" transform="translate(122,294)"/>
<path d="M0 0 C3.13068532 2.57821144 4.92518246 4.45748653 5.55859375 8.5546875 C5.57195419 19.0559928 5.57195419 19.0559928 1.125 23.75 C-1.86378817 26.09833356 -5.09706082 26.17117149 -8.84765625 26.06640625 C-13.2294439 25.38254344 -15.95655653 22.82151738 -18.75 19.5625 C-20.59696151 14.94509622 -20.85063381 10.39671941 -19.11328125 5.68359375 C-15.0901549 -1.93331345 -7.65856663 -3.32981158 0 0 Z " fill="#5D636C" transform="translate(309.875,304.25)"/>
<path d="M0 0 C1.83498047 -0.03867188 1.83498047 -0.03867188 3.70703125 -0.078125 C7.4299586 0.27285805 9.33855699 0.8406082 12.1875 3.25 C12.1875 4.57 12.1875 5.89 12.1875 7.25 C6.5775 7.25 0.9675 7.25 -4.8125 7.25 C-5.1425 8.9 -5.4725 10.55 -5.8125 12.25 C-1.76483032 14.34611466 2.10437006 16.27027329 6.4375 17.6875 C10.22929403 19.0832982 12.20159317 20.60917082 14.1875 24.25 C14.85409324 27.84960349 14.93334618 30.0716098 12.94140625 33.21875 C10.4637001 36.23401334 8.95274997 37.99491668 5.1875 39.25 C2.69482972 39.3719395 0.24238198 39.43511037 -2.25 39.4375 C-3.56871094 39.45167969 -4.88742187 39.46585938 -6.24609375 39.48046875 C-9.4675867 39.27228903 -11.15170999 38.97168766 -13.8125 37.25 C-13.8125 35.27 -13.8125 33.29 -13.8125 31.25 C-13.07 31.415 -12.3275 31.58 -11.5625 31.75 C-6.32738369 32.44801551 -1.08739267 32.52892123 4.1875 32.25 C5.48383621 31.18354885 5.48383621 31.18354885 5.25 28.6875 C5.229375 27.883125 5.20875 27.07875 5.1875 26.25 C4.1975 25.8375 3.2075 25.425 2.1875 25 C0.85249416 24.42050456 -0.48072557 23.83688365 -1.8125 23.25 C-2.50730469 22.94835937 -3.20210938 22.64671875 -3.91796875 22.3359375 C-8.26491338 20.32965537 -11.40029176 18.5718731 -13.8125 14.25 C-14.36997889 10.84318457 -14.58661846 8.52686698 -12.75390625 5.50390625 C-8.674297 0.45584376 -6.30284783 0.07919809 0 0 Z " fill="#2D3847" transform="translate(274.8125,112.75)"/>
<path d="M0 0 C3.8026029 2.0050088 5.61790841 3.42686262 8 7 C8.64722941 12.21546487 9.15008514 18.02368381 6.25 22.625 C3.0302615 26.02361286 0.30125572 27.29803272 -4.375 27.4375 C-7.78850792 27.36439357 -9.75900079 26.88885072 -12.4375 24.75 C-16.537792 20.34968663 -17.45644666 17.16211219 -17.3203125 11.25 C-16.70080732 6.89835389 -14.14946551 4.2771839 -11.3125 1.125 C-7.59900857 -0.6815634 -4.04163279 -0.64441979 0 0 Z " fill="#5B616B" transform="translate(254,247)"/>
<path d="M0 0 C0.99 0 1.98 0 3 0 C3 12.21 3 24.42 3 37 C2.01 37 1.02 37 0 37 C0 36.34 0 35.68 0 35 C-0.56847656 35.32226562 -1.13695312 35.64453125 -1.72265625 35.9765625 C-5.42805934 37.64176938 -9.01666303 37.59643548 -13 37 C-15.87029869 35.20606332 -17.49131638 34.01736724 -19 31 C-20.04817082 20.15891899 -20.04817082 20.15891899 -17.953125 15.84375 C-16.20602222 13.74722666 -14.44450412 12.22225206 -12 11 C-7.3622141 10.74234523 -5.24175928 10.87912036 -1 13 C-0.67 8.71 -0.34 4.42 0 0 Z " fill="#F8F8F9" transform="translate(339,163)"/>
<path d="M0 0 C0 1.98 0 3.96 0 6 C-1.35544922 6.05607422 -1.35544922 6.05607422 -2.73828125 6.11328125 C-3.91777344 6.17902344 -5.09726563 6.24476563 -6.3125 6.3125 C-7.48425781 6.37050781 -8.65601563 6.42851562 -9.86328125 6.48828125 C-13.13454328 7.02194915 -14.09980288 7.37344766 -16 10 C-18.10578336 14.21156672 -17.40753703 19.6027302 -16.125 24 C-15.15936335 26.15378056 -15.15936335 26.15378056 -13 27 C-10.795636 27.22950319 -8.58607827 27.41075933 -6.375 27.5625 C-5.18648437 27.64628906 -3.99796875 27.73007812 -2.7734375 27.81640625 C-1.40058594 27.90728516 -1.40058594 27.90728516 0 28 C0 29.98 0 31.96 0 34 C-5.67147014 35.89049005 -11.80797914 35.75724357 -17.4375 33.8125 C-21.76616879 30.75075866 -24.6289475 27.14144688 -26 22 C-26.7700454 15.25626907 -26.27985775 9.46803356 -22 4 C-15.88426692 -1.91427364 -7.91489841 -2.63829947 0 0 Z " fill="#5F646E" transform="translate(217,239)"/>
<path d="M0 0 C2.1875 1.6875 2.1875 1.6875 4.1875 4.6875 C4.4485788 7.71079256 4.27565181 10.64626242 4.1875 13.6875 C-1.0925 13.6875 -6.3725 13.6875 -11.8125 13.6875 C-10.8225 15.3375 -9.8325 16.9875 -8.8125 18.6875 C-5.84868482 19.29231772 -5.84868482 19.29231772 -2.625 19 C-1.53832031 18.95488281 -0.45164062 18.90976562 0.66796875 18.86328125 C1.49941406 18.80527344 2.33085937 18.74726563 3.1875 18.6875 C3.1875 20.3375 3.1875 21.9875 3.1875 23.6875 C-1.14966183 26.14064583 -4.91922882 26.37561626 -9.8125 25.6875 C-14.19503554 23.49623223 -16.97919816 21.27075461 -18.8125 16.6875 C-19.56091566 11.07438256 -19.18409198 6.40772877 -15.8125 1.6875 C-10.69239013 -1.803484 -5.7057454 -2.66268119 0 0 Z " fill="#5E646D" transform="translate(368.8125,304.3125)"/>
<path d="M0 0 C1.875 1.625 1.875 1.625 2.875 3.625 C2.95900529 5.21947464 2.98227467 6.81740545 2.97265625 8.4140625 C2.96943359 9.35507812 2.96621094 10.29609375 2.96289062 11.265625 C2.95451172 12.25046875 2.94613281 13.2353125 2.9375 14.25 C2.93298828 15.24257813 2.92847656 16.23515625 2.92382812 17.2578125 C2.91202145 19.7136016 2.895554 22.16927104 2.875 24.625 C0.895 24.625 -1.085 24.625 -3.125 24.625 C-3.125 23.965 -3.125 23.305 -3.125 22.625 C-3.82625 23.12 -4.5275 23.615 -5.25 24.125 C-8.63750333 25.89239304 -10.3585258 26.2527457 -14.125 25.625 C-17.48844489 23.13897551 -18.92557749 21.71074477 -19.6875 17.5625 C-19.00678485 14.00765419 -17.92427541 12.847954 -15.125 10.625 C-12.71954362 9.42227181 -11.17503047 9.52428528 -8.5 9.5625 C-7.27410156 9.57603516 -7.27410156 9.57603516 -6.0234375 9.58984375 C-5.08371094 9.60724609 -5.08371094 9.60724609 -4.125 9.625 C-4.455 7.975 -4.785 6.325 -5.125 4.625 C-9.085 4.625 -13.045 4.625 -17.125 4.625 C-17.125 2.975 -17.125 1.325 -17.125 -0.375 C-11.59669059 -2.2177698 -5.35265359 -2.35516758 0 0 Z " fill="#5B616B" transform="translate(190.125,304.375)"/>
<path d="M0 0 C1.98 0 3.96 0 6 0 C6 0.99 6 1.98 6 3 C6.639375 2.505 7.27875 2.01 7.9375 1.5 C11.86310071 -0.4227432 15.7157773 -1.1649407 20 0 C22.67512021 2.19461502 23.85782189 3.91829208 24.31274414 7.37939453 C24.39405972 10.20122372 24.34852329 12.99132358 24.25 15.8125 C24.23195313 16.79154297 24.21390625 17.77058594 24.1953125 18.77929688 C24.14832887 21.18720771 24.08265694 23.59309335 24 26 C21.36 26 18.72 26 16 26 C16 19.4 16 12.8 16 6 C13.36 6.33 10.72 6.66 8 7 C7.67 13.27 7.34 19.54 7 26 C4.69 26 2.38 26 0 26 C0 17.42 0 8.84 0 0 Z " fill="#5E636D" transform="translate(321,303)"/>
<path d="M0 0 C2.31 0 4.62 0 7 0 C7.33 6.27 7.66 12.54 8 19 C9.98 19 11.96 19 14 19 C14.33 12.73 14.66 6.46 15 0 C17.64 0 20.28 0 23 0 C23 8.25 23 16.5 23 25 C21.02 25 19.04 25 17 25 C17 24.34 17 23.68 17 23 C16.154375 23.495 15.30875 23.99 14.4375 24.5 C10.55685537 26.1933722 8.18817186 26.54291117 4 26 C1.8046875 24.67578125 1.8046875 24.67578125 0 22 C-0.49837585 18.23991167 -0.37486477 14.53436294 -0.25 10.75 C-0.23195313 9.71875 -0.21390625 8.6875 -0.1953125 7.625 C-0.14822712 5.08238936 -0.0824805 2.54166838 0 0 Z " fill="#5D636C" transform="translate(268,248)"/>
<path d="M0 0 C3.4203866 1.17013226 3.91540482 1.87310723 6 5 C6 7.97 6 10.94 6 14 C0.06 14 -5.88 14 -12 14 C-9.71183213 20.53576165 -9.71183213 20.53576165 -7 23 C-4.10116917 23.24339551 -4.10116917 23.24339551 -0.875 23.125 C0.76855469 23.09792969 0.76855469 23.09792969 2.4453125 23.0703125 C3.70988281 23.03550781 3.70988281 23.03550781 5 23 C4.67 23.99 4.34 24.98 4 26 C0.27097332 27.24300889 -3.12710637 27.52712352 -7 27 C-10.3403376 25.3298312 -12.34389932 24.01397378 -14.375 20.875 C-15.65404394 14.99139786 -15.99749242 9.92619225 -13.1875 4.5 C-9.17385788 -0.08701956 -5.84637481 -0.57873205 0 0 Z " fill="#666C75" transform="translate(309,174)"/>
<path d="M0 0 C3 1.9375 3 1.9375 5 5 C5.40258432 8.12656396 5.23693208 10.82511009 5 14 C-0.61 14 -6.22 14 -12 14 C-10.84448274 20.90475759 -10.84448274 20.90475759 -7 23 C-2.82699392 23.23183367 0.94020228 22.98419339 5 22 C5 22.99 5 23.98 5 25 C0.68846464 27.42889662 -3.13409452 27.85027068 -8 27 C-11.07061968 25.28631391 -13.40450726 23.19098548 -15 20 C-16.06206428 8.02901833 -16.06206428 8.02901833 -13.953125 4 C-9.9084111 0.00287097 -5.50953904 -0.89543177 0 0 Z " fill="#676C75" transform="translate(208,174)"/>
<path d="M0 0 C1.98 0 3.96 0 6 0 C6 1.98 6 3.96 6 6 C8.31 6 10.62 6 13 6 C13 7.98 13 9.96 13 12 C10.69 12 8.38 12 6 12 C6.33 16.29 6.66 20.58 7 25 C8.98 25.66 10.96 26.32 13 27 C13 28.65 13 30.3 13 32 C11.41820385 32.10867302 9.83422847 32.18589827 8.25 32.25 C7.36828125 32.29640625 6.4865625 32.3428125 5.578125 32.390625 C3 32 3 32 0.6875 30.5 C-1.6760389 26.99846089 -1.43663294 23.81285549 -1.25 19.75 C-1.23195313 19.00492187 -1.21390625 18.25984375 -1.1953125 17.4921875 C-1.14835649 15.66090299 -1.07661652 13.83028351 -1 12 C-2.32 12 -3.64 12 -5 12 C-5 10.35 -5 8.7 -5 7 C-3.68 6.67 -2.36 6.34 -1 6 C-0.67 4.02 -0.34 2.04 0 0 Z " fill="#595F69" transform="translate(259,297)"/>
<path d="M0 0 C1.98 0 3.96 0 6 0 C6 2.31 6 4.62 6 7 C8.31 7 10.62 7 13 7 C13 8.65 13 10.3 13 12 C10.69 12 8.38 12 6 12 C6.33 16.62 6.66 21.24 7 26 C8.98 26.33 10.96 26.66 13 27 C13 28.65 13 30.3 13 32 C11.23050905 32.10815225 9.45912513 32.18566083 7.6875 32.25 C6.70136719 32.29640625 5.71523437 32.3428125 4.69921875 32.390625 C2 32 2 32 0.15625 30.5 C-1.48744059 26.94607439 -1.31939345 23.57829189 -1.1875 19.75 C-1.16719727 18.63238281 -1.16719727 18.63238281 -1.14648438 17.4921875 C-1.11127204 15.66114584 -1.05746851 13.83047831 -1 12 C-2.32 12 -3.64 12 -5 12 C-5 10.35 -5 8.7 -5 7 C-3.68 7 -2.36 7 -1 7 C-0.67 4.69 -0.34 2.38 0 0 Z " fill="#565C66" transform="translate(225,297)"/>
<path d="M0 0 C2.33294775 -0.04241723 4.66702567 -0.04092937 7 0 C8 1 8 1 8.11352539 3.95922852 C8.10828857 5.25272217 8.10305176 6.54621582 8.09765625 7.87890625 C8.0962413 8.5655687 8.09482635 9.25223114 8.09336853 9.95970154 C8.08775479 12.16067801 8.07520007 14.36155409 8.0625 16.5625 C8.05748676 18.05143083 8.05292355 19.54036324 8.04882812 21.02929688 C8.03778093 24.68623075 8.02050713 28.34310558 8 32 C8.99 32 9.98 32 11 32 C11 33.65 11 35.3 11 37 C3.5682432 37.36549624 3.5682432 37.36549624 1.390625 35.96484375 C-0.74578908 32.94625868 -0.36863521 29.82821704 -0.29296875 26.26953125 C-0.28872391 25.51911057 -0.28447906 24.76868988 -0.28010559 23.99552917 C-0.2633245 21.60081974 -0.2256749 19.20695466 -0.1875 16.8125 C-0.17245235 15.1881632 -0.15876409 13.5638132 -0.14648438 11.93945312 C-0.11342305 7.95931052 -0.06164594 3.97979837 0 0 Z " fill="#646A73" transform="translate(222,236)"/>
<path d="M0 0 C0 1.65 0 3.3 0 5 C-0.71027344 5.06058594 -1.42054688 5.12117188 -2.15234375 5.18359375 C-3.07144531 5.26738281 -3.99054688 5.35117187 -4.9375 5.4375 C-5.85402344 5.51871094 -6.77054688 5.59992188 -7.71484375 5.68359375 C-9.96159732 5.76044976 -9.96159732 5.76044976 -11 7 C-11.07244053 9.01964199 -11.08377188 11.04167124 -11.0625 13.0625 C-11.05347656 14.16722656 -11.04445312 15.27195312 -11.03515625 16.41015625 C-11.02355469 17.26480469 -11.01195312 18.11945313 -11 19 C-7.37 19 -3.74 19 0 19 C0 20.65 0 22.3 0 24 C-1.78933876 25.78933876 -4.3301621 25.25643059 -6.75 25.3125 C-10.73118738 25.27940224 -12.60741062 25.21985005 -16.125 23.25 C-19.66135505 19.00637394 -20.44558273 15.69030706 -20.3203125 10.25 C-19.70080732 5.89835389 -17.14946551 3.2771839 -14.3125 0.125 C-9.81814366 -2.06144363 -4.64488581 -1.54829527 0 0 Z " fill="#5F646E" transform="translate(218,304)"/>
<path d="M0 0 C0.66 0.33 1.32 0.66 2 1 C2 1.66 2 2.32 2 3 C0.2984375 3.2165625 0.2984375 3.2165625 -1.4375 3.4375 C-4.80777201 3.61171478 -4.80777201 3.61171478 -6 5 C-6.33 7.64 -6.66 10.28 -7 13 C-1.39 13 4.22 13 10 13 C10 21.25 10 29.5 10 38 C9.01 38 8.02 38 7 38 C7 30.74 7 23.48 7 16 C2.71 16 -1.58 16 -6 16 C-6 23.26 -6 30.52 -6 38 C-7.32 38 -8.64 38 -10 38 C-10 30.74 -10 23.48 -10 16 C-11.65 16 -13.3 16 -15 16 C-15 15.01 -15 14.02 -15 13 C-13.02 13 -11.04 13 -9 13 C-9.03480469 12.31292969 -9.06960938 11.62585938 -9.10546875 10.91796875 C-9.13253906 10.01691406 -9.15960938 9.11585938 -9.1875 8.1875 C-9.22230469 7.29417969 -9.25710938 6.40085938 -9.29296875 5.48046875 C-9 3 -9 3 -7.6796875 1.19140625 C-5.1407167 -0.60949164 -3.02466168 -0.25741802 0 0 Z " fill="#70757D" transform="translate(278,162)"/>
<path d="M0 0 C1.98 0 3.96 0 6 0 C6.66 0.99 7.32 1.98 8 3 C8.556875 2.484375 9.11375 1.96875 9.6875 1.4375 C12 0 12 0 14.75 0.3125 C15.86375 0.6528125 15.86375 0.6528125 17 1 C17 2.98 17 4.96 17 7 C14.36 7.33 11.72 7.66 9 8 C8.67 13.94 8.34 19.88 8 26 C5.36 26 2.72 26 0 26 C0 17.42 0 8.84 0 0 Z " fill="#656A73" transform="translate(378,303)"/>
<path d="M0 0 C1.98 0 3.96 0 6 0 C6.66 0.99 7.32 1.98 8 3 C8.556875 2.484375 9.11375 1.96875 9.6875 1.4375 C12 0 12 0 14.75 0.3125 C15.86375 0.6528125 15.86375 0.6528125 17 1 C17 2.98 17 4.96 17 7 C14.36 7.33 11.72 7.66 9 8 C8.67 13.94 8.34 19.88 8 26 C5.36 26 2.72 26 0 26 C0 17.42 0 8.84 0 0 Z " fill="#656A73" transform="translate(152,303)"/>
<path d="M0 0 C0.99 0 1.98 0 3 0 C3 12.21 3 24.42 3 37 C2.01 37 1.02 37 0 37 C0 36.34 0 35.68 0 35 C-0.56847656 35.32226562 -1.13695312 35.64453125 -1.72265625 35.9765625 C-5.42805934 37.64176938 -9.01666303 37.59643548 -13 37 C-15.87029869 35.20606332 -17.49131638 34.01736724 -19 31 C-20.04817082 20.15891899 -20.04817082 20.15891899 -17.953125 15.84375 C-16.20602222 13.74722666 -14.44450412 12.22225206 -12 11 C-7.3622141 10.74234523 -5.24175928 10.87912036 -1 13 C-0.67 8.71 -0.34 4.42 0 0 Z M-13.875 15.875 C-16.80386346 20.18215215 -16.78441191 23.92196501 -16 29 C-14.73184696 32.29719791 -14.07114337 32.95257109 -11 35 C-7.66130146 35.36290201 -5.47323607 35.18720662 -2.34375 33.94921875 C0.35703449 32.12261896 0.35703449 32.12261896 0.6640625 28.53125 C0.67731445 27.18750226 0.663379 25.84326492 0.625 24.5 C0.64433594 23.82324219 0.66367187 23.14648438 0.68359375 22.44921875 C0.72032439 20.20436144 0.72032439 20.20436144 0 17 C-2.74027133 14.74223492 -4.50691806 14.08218032 -8 13.5 C-11.13969802 13.81714527 -11.13969802 13.81714527 -13.875 15.875 Z " fill="#60656F" transform="translate(339,163)"/>
<path d="M0 0 C1.32 0.99 2.64 1.98 4 3 C1.83220689 7.84309854 -1.68109226 11.08711009 -5.375 14.8125 C-6.38433594 15.87114258 -6.38433594 15.87114258 -7.4140625 16.95117188 C-8.06890625 17.61310547 -8.72375 18.27503906 -9.3984375 18.95703125 C-9.99317871 19.56522705 -10.58791992 20.17342285 -11.20068359 20.80004883 C-13 22 -13 22 -15.05322266 21.8503418 C-18.01215532 20.55789604 -19.83605261 18.34427634 -22 16 C-21.1875 14.0625 -21.1875 14.0625 -20 12 C-19.01 11.67 -18.02 11.34 -17 11 C-16.67 11.66 -16.34 12.32 -16 13 C-12.83145253 12.42308522 -11.21773541 11.58353113 -8.984375 9.27734375 C-8.19160156 8.47006836 -8.19160156 8.47006836 -7.3828125 7.64648438 C-6.57457031 6.80053711 -6.57457031 6.80053711 -5.75 5.9375 C-5.19570313 5.36966797 -4.64140625 4.80183594 -4.0703125 4.21679688 C-2.70665786 2.81787531 -1.35239583 1.40980886 0 0 Z " fill="#FEF8EF" transform="translate(329,122)"/>
<path d="M0 0 C2.31 0 4.62 0 7 0 C7 8.25 7 16.5 7 25 C4.69 25 2.38 25 0 25 C0 16.75 0 8.5 0 0 Z " fill="#555B65" transform="translate(277,304)"/>
<path d="M0 0 C2.31 0 4.62 0 7 0 C7 8.25 7 16.5 7 25 C4.69 25 2.38 25 0 25 C0 16.75 0 8.5 0 0 Z " fill="#555B65" transform="translate(243,304)"/>
<path d="M0 0 C-0.61272217 6.494855 -0.61272217 6.494855 -2.4375 8.875 C-5.06819699 10.76910184 -6.80271515 11.15811319 -10 11.1875 C-11.051875 11.20876953 -11.051875 11.20876953 -12.125 11.23046875 C-14 11 -14 11 -16 9 C-16.66574776 2.8973122 -16.66574776 2.8973122 -14.5625 0.0625 C-9.83448547 -1.89789627 -4.80278743 -1.60092914 0 0 Z " fill="#F5F6F6" transform="translate(195,135)"/>
<path d="M0 0 C-0.33 0.99 -0.66 1.98 -1 3 C-1.61488281 2.96519531 -2.22976562 2.93039063 -2.86328125 2.89453125 C-4.07564453 2.85392578 -4.07564453 2.85392578 -5.3125 2.8125 C-6.11300781 2.77769531 -6.91351563 2.74289063 -7.73828125 2.70703125 C-10.02214829 2.8428902 -10.02214829 2.8428902 -11.765625 4.10546875 C-13.58615035 6.8996295 -13.43377929 9.19600895 -13.4375 12.5 C-13.45683594 13.6446875 -13.47617188 14.789375 -13.49609375 15.96875 C-13.27618246 19.04404801 -13.27618246 19.04404801 -11.26953125 20.89453125 C-8.69543782 22.14834956 -7.09383472 22.3129633 -4.25 22.1875 C-3.05117187 22.14689453 -3.05117187 22.14689453 -1.828125 22.10546875 C-1.22484375 22.07066406 -0.6215625 22.03585938 0 22 C-0.33 22.99 -0.66 23.98 -1 25 C-10.94126706 25.78346238 -10.94126706 25.78346238 -15.125 22.6875 C-18.56528226 17.75642875 -18.66257037 12.83606506 -18 7 C-16.39306865 3.7861373 -15.05663831 1.83021581 -12.25 -0.375 C-8.31072041 -1.46924433 -3.71660998 -1.85830499 0 0 Z " fill="#676C75" transform="translate(189,175)"/>
<path d="M0 0 C2.01822917 0.06510417 4.03645833 0.13020833 6.0546875 0.1953125 C6.08154162 2.50775042 6.10101591 4.8202752 6.1171875 7.1328125 C6.12878906 8.42058594 6.14039063 9.70835937 6.15234375 11.03515625 C6.0546875 14.1953125 6.0546875 14.1953125 5.0546875 15.1953125 C1.6171875 15.4453125 1.6171875 15.4453125 -1.9453125 15.1953125 C-4.11253032 11.94448577 -4.21752268 10.90299097 -4.1953125 7.1328125 C-4.20046875 6.25496094 -4.205625 5.37710937 -4.2109375 4.47265625 C-3.86530138 1.50933483 -3.05701283 0.306929 0 0 Z " fill="#FBFBFB" transform="translate(307.9453125,252.8046875)"/>
<path d="M0 0 C0.99 0 1.98 0 3 0 C3 2.31 3 4.62 3 7 C5.64 7 8.28 7 11 7 C11 7.66 11 8.32 11 9 C8.36 9 5.72 9 3 9 C3.33 15.27 3.66 21.54 4 28 C6.64 28.33 9.28 28.66 12 29 C11.67 29.99 11.34 30.98 11 32 C3.4849436 32.36959294 3.4849436 32.36959294 1.390625 30.7734375 C-0.40574805 28.48255726 -0.34811061 27.21778863 -0.29296875 24.33203125 C-0.28330078 23.43935547 -0.27363281 22.54667969 -0.26367188 21.62695312 C-0.23853516 20.69818359 -0.21339844 19.76941406 -0.1875 18.8125 C-0.16719727 17.40194336 -0.16719727 17.40194336 -0.14648438 15.96289062 C-0.11113096 13.64134962 -0.06178674 11.32096347 0 9 C-1.32 9 -2.64 9 -4 9 C-4 8.34 -4 7.68 -4 7 C-2.68 7 -1.36 7 0 7 C0 4.69 0 2.38 0 0 Z " fill="#636872" transform="translate(239,168)"/>
<path d="M0 0 C0.99 0.103125 1.98 0.20625 3 0.3125 C5.08133467 3.434502 5.2737822 4.24516989 5.25 7.8125 C5.25515625 8.5859375 5.2603125 9.359375 5.265625 10.15625 C5 12.3125 5 12.3125 3 15.3125 C0 15.625 0 15.625 -3 15.3125 C-5 13.3125 -5 13.3125 -5.265625 10.78125 C-5.26046875 9.8015625 -5.2553125 8.821875 -5.25 7.8125 C-5.25515625 6.8328125 -5.2603125 5.853125 -5.265625 4.84375 C-4.86196711 0.99712775 -3.77612871 0.39334674 0 0 Z " fill="#F9F9FA" transform="translate(250,252.6875)"/>
<path d="M0 0 C0.99 0.103125 1.98 0.20625 3 0.3125 C5.01696222 3.33794334 5.25811096 3.92317382 5.1875 7.3125 C5.17783203 8.3334375 5.17783203 8.3334375 5.16796875 9.375 C5 11.3125 5 11.3125 4 14.3125 C1.69 14.6425 -0.62 14.9725 -3 15.3125 C-5.16721782 12.06167327 -5.27221018 11.02017847 -5.25 7.25 C-5.25515625 6.37214844 -5.2603125 5.49429687 -5.265625 4.58984375 C-4.834653 0.89489265 -3.58375496 0.37330781 0 0 Z " fill="#FBFBFB" transform="translate(303,308.6875)"/>
<path d="M0 0 C0.99 0 1.98 0 3 0 C3 12.21 3 24.42 3 37 C2.01 37 1.02 37 0 37 C0 36.34 0 35.68 0 35 C-0.99 35 -1.98 35 -3 35 C-3 34.34 -3 33.68 -3 33 C-2.01 32.505 -2.01 32.505 -1 32 C-1.01160156 30.86304688 -1.02320313 29.72609375 -1.03515625 28.5546875 C-1.10177073 18.97677381 -0.85949359 9.54651806 0 0 Z " fill="#555B65" transform="translate(339,163)"/>
<path d="M0 0 C0.99 0 1.98 0 3 0 C3.33 0.66 3.66 1.32 4 2 C4.99 1.34 5.98 0.68 7 0 C10.1875 -0.125 10.1875 -0.125 13 0 C13 0.99 13 1.98 13 3 C12.43410156 3.13277344 11.86820313 3.26554688 11.28515625 3.40234375 C10.18494141 3.66724609 10.18494141 3.66724609 9.0625 3.9375 C8.33160156 4.11152344 7.60070312 4.28554687 6.84765625 4.46484375 C5.00030102 4.83887569 5.00030102 4.83887569 4 6 C3.84379445 7.41327947 3.74943827 8.8335459 3.68359375 10.25390625 C3.64169922 11.10791016 3.59980469 11.96191406 3.55664062 12.84179688 C3.49766602 14.18854492 3.49766602 14.18854492 3.4375 15.5625 C3.39431641 16.46419922 3.35113281 17.36589844 3.30664062 18.29492188 C3.20021858 20.52978485 3.09820012 22.76476308 3 25 C2.01 25 1.02 25 0 25 C0 16.75 0 8.5 0 0 Z " fill="#70757D" transform="translate(219,175)"/>
<path d="M0 0 C6.0546875 -0.1953125 6.0546875 -0.1953125 8 0 C10 2 10 2 10.25 5.5 C10 9 10 9 8 11 C5.31160615 11.26991906 2.70858064 11.08737357 0 11 C0 7.37 0 3.74 0 0 Z " fill="#F5F5F6" transform="translate(129,300)"/>
<path d="M0 0 C1.9375 1.1875 1.9375 1.1875 3 3 C3 4.65 3 6.3 3 8 C-1.95 8 -6.9 8 -12 8 C-9.44758205 0.34274614 -7.7614508 -0.69298668 0 0 Z " fill="#FAFAFA" transform="translate(309,177)"/>
<path d="M0 0 C1.9375 1.1875 1.9375 1.1875 3 3 C3 4.65 3 6.3 3 8 C-1.62 8 -6.24 8 -11 8 C-10 3 -10 3 -8.875 1.1875 C-5.89044769 -0.70271646 -3.43459566 -0.36799239 0 0 Z " fill="#FBFCFC" transform="translate(207,177)"/>
<path d="M0 0 C0.99 0 1.98 0 3 0 C3 8.25 3 16.5 3 25 C2.01 25 1.02 25 0 25 C0 16.75 0 8.5 0 0 Z " fill="#636872" transform="translate(256,175)"/>
<path d="M0 0 C2.5625 0.1875 2.5625 0.1875 4.5625 2.1875 C4.1875 4.8125 4.1875 4.8125 3.5625 7.1875 C-1.1875 8.3125 -1.1875 8.3125 -3.4375 7.1875 C-3.48004356 5.18795254 -3.47830783 3.18708364 -3.4375 1.1875 C-2.4375 0.1875 -2.4375 0.1875 0 0 Z " fill="#626871" transform="translate(280.4375,291.8125)"/>
<path d="M0 0 C2.5625 0.1875 2.5625 0.1875 4.5625 2.1875 C4.1875 4.8125 4.1875 4.8125 3.5625 7.1875 C-1.1875 8.3125 -1.1875 8.3125 -3.4375 7.1875 C-3.48004356 5.18795254 -3.47830783 3.18708364 -3.4375 1.1875 C-2.4375 0.1875 -2.4375 0.1875 0 0 Z " fill="#626871" transform="translate(246.4375,291.8125)"/>
<path d="M0 0 C0.1875 2.375 0.1875 2.375 0 5 C-3 7 -3 7 -5.6875 6.625 C-6.450625 6.41875 -7.21375 6.2125 -8 6 C-8 4.35 -8 2.7 -8 1 C-5.29120665 -0.35439668 -2.99066732 -0.06501451 0 0 Z " fill="#F2F3F4" transform="translate(186,318)"/>
<path d="M0 0 C1.98 0 3.96 0 6 0 C6.33 1.65 6.66 3.3 7 5 C4.03 5 1.06 5 -2 5 C-1.34 3.35 -0.68 1.7 0 0 Z " fill="#F7F8F8" transform="translate(359,308)"/>
<path d="M0 0 C3.0625 0.125 3.0625 0.125 5.0625 1.125 C5.0625 1.785 5.0625 2.445 5.0625 3.125 C4.12277344 3.21587891 4.12277344 3.21587891 3.1640625 3.30859375 C2.34679687 3.39238281 1.52953125 3.47617188 0.6875 3.5625 C-0.12460937 3.64371094 -0.93671875 3.72492188 -1.7734375 3.80859375 C-3.98022805 4.01590114 -3.98022805 4.01590114 -5.9375 5.125 C-3.53035214 0.15022775 -3.53035214 0.15022775 0 0 Z " fill="#686D76" transform="translate(274.9375,161.875)"/>
<path d="M0 0 C0 0.99 0 1.98 0 3 C-2.64 3.33 -5.28 3.66 -8 4 C-8 3.01 -8 2.02 -8 1 C-5.29120665 -0.35439668 -2.99066732 -0.06501451 0 0 Z " fill="#6C717A" transform="translate(232,175)"/>
<path d="M0 0 C0.99 0 1.98 0 3 0 C2.67 1.65 2.34 3.3 2 5 C1.01 4.67 0.02 4.34 -1 4 C-0.67 2.68 -0.34 1.36 0 0 Z " fill="#636872" transform="translate(285,165)"/>
<path d="M0 0 C0.99 0 1.98 0 3 0 C2.67 1.65 2.34 3.3 2 5 C1.01 4.67 0.02 4.34 -1 4 C-0.67 2.68 -0.34 1.36 0 0 Z " fill="#636872" transform="translate(256,165)"/>
</svg>
