<?xml version="1.0" encoding="UTF-8"?>
<svg version="1.1" xmlns="http://www.w3.org/2000/svg" width="600" height="600">
<path d="M0 0 C1.43464382 -0.00397774 1.43464382 -0.00397774 2.89827034 -0.00803584 C6.13980703 -0.01576494 9.38130606 -0.01628938 12.62285137 -0.01688576 C14.95565177 -0.02089799 17.28845148 -0.02533581 19.62125033 -0.03016531 C25.38371279 -0.04090232 31.14616683 -0.04689301 36.90863761 -0.05087419 C43.80747316 -0.05587771 50.70629685 -0.06660429 57.60512541 -0.07735593 C74.28122598 -0.10300226 90.95733116 -0.11802399 107.63344578 -0.13086639 C113.15515952 -0.13511935 118.67687291 -0.13968502 124.19858623 -0.14444971 C153.54083762 -0.16970659 182.88308955 -0.19176069 212.22534943 -0.20417786 C219.02554927 -0.20709932 225.8257491 -0.21006681 232.62594891 -0.21308327 C233.4708103 -0.21345418 234.3156717 -0.21382509 235.18613496 -0.21420723 C262.58987553 -0.22636772 289.99355195 -0.25731948 317.39726239 -0.29900479 C345.55606878 -0.34176079 373.71484129 -0.36841479 401.87368103 -0.37365257 C405.84809209 -0.37439306 409.8225031 -0.37530375 413.7969141 -0.37631035 C414.97026369 -0.37659627 414.97026369 -0.37659627 416.1673173 -0.37688797 C428.77293405 -0.38040608 441.37847064 -0.40072471 453.98405791 -0.42710699 C466.64674873 -0.45320985 479.3093466 -0.46099678 491.97206048 -0.4500057 C498.83641248 -0.44454354 505.70053108 -0.44717356 512.56484509 -0.47247124 C518.84242303 -0.49481956 525.11955946 -0.49433649 531.3971444 -0.47526737 C533.67441889 -0.47244704 535.95172241 -0.47817727 538.22894988 -0.4930803 C541.31296408 -0.51203749 544.39537965 -0.50049797 547.47935486 -0.48101807 C548.37370761 -0.49386729 549.26806037 -0.50671651 550.18951473 -0.5199551 C554.63244379 -0.45783972 556.3686656 -0.30917263 559.95650691 2.55064142 C562.97749606 6.51295034 563.05518155 8.52595249 563.06266022 13.48835945 C563.06501245 14.15071205 563.06736468 14.81306464 563.06978819 15.49548852 C563.07649692 17.73667005 563.0760194 19.97779386 563.07561016 22.2189846 C563.07890762 23.83335721 563.08263294 25.44772898 563.08675164 27.0620997 C563.09679316 31.51541549 563.10049188 35.96871781 563.10314095 40.42204332 C563.10703763 45.21835627 563.11661638 50.01465848 563.12535381 54.81096458 C563.1451361 66.40239752 563.1551866 77.99383136 563.1640816 89.58527696 C563.16846155 95.03968003 563.17382911 100.49408212 563.17907047 105.94848442 C563.1960844 124.0729089 563.21057955 142.19733276 563.21781921 160.32176399 C563.21972921 165.0274334 563.22164952 169.73310281 563.22360516 174.4387722 C563.2240889 175.60838833 563.22457264 176.77800445 563.22507104 177.98306349 C563.23337496 196.93876871 563.25871728 215.89441089 563.29118583 234.85008857 C563.32422628 254.29769555 563.34226524 273.74527046 563.34546345 293.19290566 C563.34763133 304.11763112 563.35642053 315.04226466 563.38192463 325.96696281 C563.40359046 335.26920272 563.41170238 344.5713284 563.40195785 353.87359068 C563.39740119 358.62166196 563.39937838 363.36949734 563.41871929 368.11753654 C563.43626661 372.46269889 563.43542226 376.80745177 563.419822 381.15261796 C563.41743305 382.72601074 563.42183579 384.29943125 563.43365065 385.87278149 C563.44870644 388.00978904 563.43914314 390.14533384 563.42342377 392.28230476 C563.42440058 393.46974525 563.42537738 394.65718574 563.42638379 395.88060927 C562.82126477 399.83790185 561.40149301 402.02620927 558.92843914 405.13701439 C555.51632517 406.84307137 551.61117068 406.27741486 547.85687828 406.27123547 C546.90044907 406.2735877 545.94401986 406.27593993 544.95860794 406.27836344 C541.71706979 406.28508091 538.47557146 406.28459439 535.23402691 406.28418541 C532.90122663 406.28748232 530.56842692 406.29120752 528.23562795 406.29532689 C522.47316436 406.30431869 516.71071053 406.30857764 510.94824067 406.31084585 C504.0494062 406.31380371 497.15058198 406.32249861 490.25175287 406.33126013 C473.57565001 406.35212181 456.89954536 406.36257672 440.2234325 406.37138974 C432.3383031 406.37559347 424.45317447 406.3808158 416.56804571 406.38607427 C389.58920851 406.40396522 362.6103711 406.41896268 335.63152885 406.42639446 C333.93724611 406.42686922 332.24296337 406.42734511 330.54868062 406.42782212 C329.28833368 406.42817669 329.28833368 406.42817669 328.00252519 406.42853842 C323.74532658 406.42973964 319.48812798 406.43095508 315.23092937 406.4321804 C314.38606798 406.43242055 313.54120658 406.4326607 312.67074332 406.43290813 C285.26701347 406.44080428 257.86332686 406.46424224 230.45961589 406.49673635 C201.50314022 406.53100913 172.54668986 406.5507432 143.59019357 406.5540387 C140.41345043 406.55445626 137.2367073 406.55493583 134.05996418 406.55546188 C132.8866146 406.55564667 132.8866146 406.55564667 131.68956098 406.55583519 C119.08395812 406.55817032 106.47840535 406.57384761 93.87282037 406.59430373 C81.21013711 406.61452704 68.54751422 406.62005563 55.8848178 406.6105331 C49.020499 406.60576596 42.15632913 406.60746516 35.2920332 406.62729454 C29.01450633 406.64479775 22.73726322 406.64403363 16.45973388 406.62839725 C14.18246198 406.62600154 11.90517109 406.6304451 9.6279284 406.6422259 C6.54410955 406.65719771 3.4613154 406.64777433 0.37752342 406.63199902 C-0.96400571 406.64733233 -0.96400571 406.64733233 -2.33263645 406.6629754 C-6.44874658 406.61668183 -8.5392496 406.47206352 -12.09962863 404.23107785 C-15.40742183 400.71841714 -15.1986654 398.50009458 -15.20578194 393.75164127 C-15.20813417 393.08561234 -15.2104864 392.4195834 -15.21290991 391.73337176 C-15.21961879 389.4796942 -15.21914112 387.22607405 -15.21873188 384.97238731 C-15.22202933 383.34905242 -15.22575464 381.72571836 -15.22987336 380.10238534 C-15.23991494 375.62433579 -15.24361361 371.14629965 -15.24626267 366.66824043 C-15.2501593 361.84536153 -15.25973802 357.0224933 -15.26847553 352.1996212 C-15.28825736 340.54441845 -15.29830799 328.88921481 -15.30720332 317.23399946 C-15.31158311 311.75007967 -15.31695069 306.26616085 -15.32219219 300.78224182 C-15.33920563 282.56087984 -15.35370111 264.33951847 -15.36094093 246.11814976 C-15.36285093 241.38737741 -15.36477125 236.65660507 -15.36672688 231.92583275 C-15.36721062 230.74997308 -15.36769436 229.57411342 -15.36819275 228.36262164 C-15.37649792 209.30277661 -15.40184254 190.24299425 -15.43430755 171.1831766 C-15.46734156 151.6304833 -15.48538635 132.07782189 -15.48858517 112.52510053 C-15.49075359 101.54060343 -15.49955064 90.55619772 -15.52504635 79.57172775 C-15.54670336 70.21932043 -15.55482846 60.86702669 -15.54507957 51.51459714 C-15.54052041 46.7403218 -15.54251447 41.96628107 -15.56184101 37.19203758 C-15.57937057 32.82410629 -15.57855867 28.45658252 -15.56294372 24.08864752 C-15.56055204 22.50585136 -15.56497136 20.92302773 -15.57677237 19.34027376 C-15.59179484 17.19298635 -15.5822881 15.04716103 -15.56654549 12.89991093 C-15.5675223 11.70601519 -15.5684991 10.51211946 -15.56950551 9.28204507 C-14.97070009 5.4999753 -13.72355891 3.84695887 -11.07156086 1.13701439 C-7.65948484 -0.56902362 -3.7543346 -0.00498887 0 0 Z " fill="#000000" transform="translate(27.071560859680176,96.86298561096191)"/>
<path d="M0 0 C0.82030647 -0.00327219 1.64061293 -0.00654439 2.48577717 -0.00991574 C3.3884819 -0.00843212 4.29118664 -0.00694849 5.22124606 -0.00541991 C6.18299545 -0.00777214 7.14474484 -0.01012437 8.13563815 -0.01254788 C11.38928196 -0.01925564 14.64288601 -0.01877912 17.89653617 -0.01836985 C20.24043583 -0.02166737 22.58433491 -0.0253927 24.92823327 -0.02951133 C30.71436751 -0.03849743 36.50049203 -0.042761 42.2866325 -0.0450303 C49.21474775 -0.04798985 56.14285283 -0.05668579 63.07096275 -0.06544458 C79.81777495 -0.08629983 96.56458893 -0.09676035 113.31141109 -0.10557419 C121.23165065 -0.10977903 129.15188945 -0.11500123 137.07212836 -0.12025872 C164.17649204 -0.13814957 191.28085594 -0.15314635 218.38522464 -0.16057891 C220.08719731 -0.16105367 221.78916998 -0.16152955 223.49114265 -0.16200657 C224.75719799 -0.16236113 224.75719799 -0.16236113 226.04883021 -0.16272286 C230.3252394 -0.16392408 234.60164859 -0.16513952 238.87805778 -0.16636485 C239.72672854 -0.166605 240.5753993 -0.16684515 241.44978736 -0.16709258 C268.97137017 -0.17498711 296.49290991 -0.19842178 324.01447391 -0.23092079 C353.10222308 -0.26520663 382.18994704 -0.28492888 411.27771676 -0.28822315 C414.46994483 -0.2886407 417.66217288 -0.28912026 420.85440093 -0.28964633 C422.03345154 -0.28983111 422.03345154 -0.28983111 423.23632135 -0.29001964 C435.8942772 -0.29235319 448.55218308 -0.30802175 461.21012111 -0.32848817 C473.92986473 -0.34872848 486.64954823 -0.35423199 499.36930498 -0.34471754 C506.26235594 -0.33995576 513.15525862 -0.34161898 520.04828674 -0.36147898 C526.35553689 -0.37901755 532.66250489 -0.3781887 538.96975765 -0.36258169 C541.2544554 -0.36019144 543.53917222 -0.36460194 545.8238407 -0.37641034 C548.92486526 -0.39144841 552.02487959 -0.38191212 555.12587863 -0.36618346 C556.01687754 -0.37640567 556.90787644 -0.38662787 557.82587531 -0.39715984 C564.61780219 -0.32176088 569.90416244 1.40762226 575.04675895 5.94520742 C575.50179801 6.52141835 575.95683707 7.09762929 576.4256652 7.69130117 C576.89875114 8.27009023 577.37183707 8.84887929 577.85925895 9.44520742 C580.30488077 13.09248425 580.11521118 16.472138 580.11959296 20.72813302 C580.12267192 21.74365316 580.12267192 21.74365316 580.12581307 22.77968886 C580.13150011 25.06472289 580.13002373 27.34969696 580.12860709 29.63473684 C580.13118975 31.2829707 580.13420263 32.93120394 580.1376105 34.5794363 C580.14569538 39.12170723 580.14747089 43.66396237 580.14820796 48.20623964 C580.15005592 53.10001224 580.15760193 57.9937766 580.16434318 62.88754445 C580.17793733 73.59403867 580.18395283 84.30052914 580.18835384 95.00703055 C580.19111429 101.68888934 580.19535126 108.37074668 580.19985801 115.0526045 C580.21205182 133.5433666 580.22235109 152.03412754 580.2257331 170.52489358 C580.22595267 171.70882335 580.22617223 172.89275311 580.22639845 174.11255954 C580.22661673 175.29936168 580.22683501 176.48616382 580.2270599 177.70892966 C580.22750337 180.11394217 580.22794993 182.51895467 580.22839957 184.92396718 C580.228621 186.11694272 580.22884243 187.30991827 580.22907057 188.53904458 C580.23301988 207.8761985 580.25047747 227.21331475 580.2737591 246.55045412 C580.29745494 266.3913373 580.30993414 286.23220157 580.31110102 306.07309914 C580.31201875 317.21800277 580.31779565 328.36285733 580.33592063 339.50774747 C580.35129774 348.99659935 580.35645622 358.48538701 580.34818253 367.97424898 C580.34426761 372.81747383 580.34524658 377.66056924 580.35923988 382.50377828 C580.37192834 386.93581136 580.37082597 391.36761708 580.35864916 395.79964962 C580.35668337 397.40463804 580.35981108 399.0096423 580.36849353 400.61460844 C580.3795388 402.79399823 580.37213193 404.97257891 580.360102 407.15194589 C580.36099763 408.96874666 580.36099763 408.96874666 580.36191136 410.82225049 C579.7667957 416.08726808 577.69353523 420.01849643 573.6131652 423.37880117 C573.04855582 423.85833242 572.48394645 424.33786367 571.9022277 424.83192617 C566.58508296 428.43456301 561.71547679 428.41368947 555.50340205 428.38327676 C554.53874579 428.38648324 553.57408952 428.38968972 552.58020124 428.39299336 C549.32868345 428.40133367 546.07734794 428.39535495 542.82582694 428.38949758 C540.47877518 428.39251642 538.13172439 428.39640455 535.78467536 428.40109015 C529.99856028 428.4103298 524.21249749 428.41021282 518.42637766 428.40617853 C511.49678333 428.40185857 504.5672134 428.40910419 497.63762358 428.41666981 C483.2700128 428.43192444 468.90241962 428.43361339 454.53480244 428.43114678 C443.44181554 428.42931541 432.34883441 428.43107044 421.25584823 428.43537122 C419.66315049 428.43597362 418.07045276 428.43657481 416.47775502 428.43717482 C414.07783115 428.43808206 411.67790729 428.43899072 409.27798343 428.43990717 C386.95972823 428.4483389 364.64147521 428.45267086 342.32321864 428.44850045 C341.48155255 428.44834408 340.63988645 428.4481877 339.77271532 428.44802659 C335.50664068 428.44722078 331.24056605 428.44637501 326.97449142 428.44551329 C326.12720764 428.4453422 325.27992385 428.44517111 324.4069648 428.44499484 C322.69355081 428.44464818 320.98013682 428.44429965 319.26672284 428.44394925 C292.60085917 428.43859101 265.93502856 428.44652449 239.26917106 428.46498281 C209.32247506 428.48568778 179.37579954 428.49642844 149.42909598 428.49240732 C146.23749664 428.49201196 143.04589729 428.49165042 139.85429794 428.49130994 C138.67548456 428.49117384 138.67548456 428.49117384 137.47285677 428.491035 C125.59729569 428.48986789 113.72175526 428.49652587 101.84619933 428.50712186 C88.34445001 428.5191564 74.84274625 428.52075298 61.34099627 428.50833169 C54.44820714 428.50227469 47.55549931 428.50101018 40.66271621 428.5133341 C34.35815352 428.52412284 28.05375517 428.52117359 21.7492004 428.50707241 C19.46325562 428.50440606 17.17729826 428.50685215 14.89136577 428.51480827 C11.79363278 428.52484509 8.6964787 428.51655148 5.59876949 428.50353128 C4.70308825 428.51084062 3.80740701 428.51814997 2.88458392 428.52568081 C-3.51950513 428.46956047 -7.6206186 427.12148133 -12.6368348 422.94130117 C-19.71527807 414.55893413 -19.5860493 406.67129942 -19.5264985 396.20036489 C-19.53182683 394.56716005 -19.53889418 392.93396012 -19.54754555 391.30076951 C-19.56616194 386.82302149 -19.55987136 382.34560443 -19.54939252 377.86784273 C-19.54239763 373.03472516 -19.55840071 368.20167538 -19.57138985 363.36857778 C-19.59303067 353.90399374 -19.59290266 344.43952994 -19.58476431 334.97492929 C-19.5784638 327.28163896 -19.57960182 319.58838369 -19.58603638 311.89509374 C-19.58693804 310.80002184 -19.58783969 309.70494993 -19.58876867 308.57669403 C-19.59061988 306.35203161 -19.59248244 304.12736919 -19.59435623 301.90270679 C-19.61093519 281.04113697 -19.60221488 260.17963478 -19.58537065 239.31806903 C-19.57067578 220.23608792 -19.58529897 201.15426431 -19.61414082 182.07230349 C-19.64354034 162.47530969 -19.65450533 142.87838856 -19.64495862 123.28137368 C-19.64393607 121.06429584 -19.64294146 118.84721799 -19.6419751 116.63014013 C-19.64149871 115.53931948 -19.64102232 114.44849884 -19.6405315 113.32462303 C-19.63836799 105.64277567 -19.64816819 97.96099717 -19.66274613 90.27916509 C-19.68027033 80.91419786 -19.68015086 71.54943138 -19.65739448 62.18447204 C-19.64625279 57.40747606 -19.64308818 52.63083374 -19.66169518 47.85385305 C-19.67852105 43.47778086 -19.67212053 39.10237019 -19.64747839 34.7263407 C-19.64260158 33.14633449 -19.64609317 31.56627471 -19.65896583 29.98631342 C-19.72537588 21.19865155 -19.45167243 13.44589658 -14.0118348 6.12880117 C-9.886991 2.23266212 -5.70903001 0.0059608 0 0 Z M-13.0118348 10.12880117 C-15.68283344 14.58561557 -16.38815632 17.86032848 -16.39494485 23.0292204 C-16.39990436 23.70234268 -16.40486388 24.37546495 -16.40997368 25.06898487 C-16.42291974 27.32291178 -16.41454862 29.5762453 -16.40624398 31.83018667 C-16.41113337 33.46308867 -16.41732339 35.09598721 -16.42470187 36.72887987 C-16.4411185 41.21495406 -16.43877996 45.70085271 -16.4333269 50.18694645 C-16.43065883 55.02550702 -16.44518429 59.86402056 -16.45742196 64.70256215 C-16.47848748 74.18143361 -16.48301617 83.66024391 -16.48123407 93.139136 C-16.47992703 100.84297528 -16.48372764 108.54679547 -16.49115914 116.25063115 C-16.49325831 118.46876067 -16.49535591 120.68689018 -16.49745196 122.9050197 C-16.49849549 124.00900599 -16.49953902 125.11299227 -16.50061417 126.25043269 C-16.51952101 147.13481007 -16.51846495 168.01915233 -16.51164484 188.90353473 C-16.50606885 208.01285608 -16.52689643 227.12204339 -16.56000531 246.23133342 C-16.59373073 265.84858884 -16.60891208 285.46578002 -16.60428828 305.08306497 C-16.60204246 316.09834848 -16.60730333 327.11350808 -16.63218087 338.12876683 C-16.65317911 347.50627478 -16.65680061 356.88359088 -16.63788128 366.26110666 C-16.62871442 371.04594754 -16.62760951 375.83043059 -16.64823693 380.61524373 C-16.66691458 384.99621637 -16.6624797 389.37653729 -16.63969111 393.75748487 C-16.63549723 395.34155675 -16.63973192 396.92567828 -16.65328705 398.50969772 C-16.73393108 408.62301293 -15.89369328 415.11500057 -8.6993348 422.50380117 C-2.38052643 426.324476 4.47686091 426.41907017 11.64907676 426.38048345 C12.59633488 426.38339033 13.54359301 426.38629721 14.51955593 426.38929218 C17.69384965 426.39659129 20.86795003 426.38964913 24.04224235 426.38276845 C26.34096006 426.38507291 28.63967703 426.38824934 30.93839246 426.39222294 C37.25556936 426.40058155 43.57268594 426.39644078 49.88986307 426.3902505 C56.00282797 426.38521881 62.11578676 426.39151791 68.22874995 426.39654524 C81.5030118 426.4070757 94.77725441 426.40616433 108.0515181 426.40038741 C119.66803172 426.39535674 131.28453828 426.39404269 142.90105277 426.3964327 C143.67153701 426.39658547 144.44202126 426.39673824 145.2358535 426.39689564 C148.36348272 426.39751831 151.49111193 426.39815511 154.61874113 426.39881517 C183.95962795 426.40493347 213.3005025 426.39938575 242.64138743 426.38862137 C268.71027435 426.37913013 294.77914173 426.37997938 320.84802848 426.38954335 C350.13517667 426.4002521 379.42231402 426.40449957 408.70946389 426.39831883 C411.8314018 426.39767739 414.95333971 426.39705171 418.07527763 426.3964327 C418.84398106 426.39627454 419.61268449 426.39611639 420.40468196 426.39595344 C432.01403022 426.39367828 443.62337064 426.39633945 455.23271781 426.4013918 C468.43276471 426.40710778 481.63278935 426.40568607 494.83283347 426.39483032 C501.56993059 426.38947251 508.3069856 426.38752686 515.04408294 426.39412862 C521.20858569 426.40007801 527.37301187 426.39682958 533.53750765 426.38617352 C535.77023516 426.38393521 538.00296911 426.38508539 540.2356925 426.38992509 C543.26630535 426.39599156 546.29665462 426.38978355 549.32725364 426.38048345 C550.63272992 426.38750695 550.63272992 426.38750695 551.96457946 426.39467233 C559.85333938 426.34616776 566.6873109 425.2840456 572.9881652 420.12880117 C577.00411482 414.8103814 578.11249722 411.21605941 578.12238628 404.62876016 C578.12473851 403.96247617 578.12709074 403.29619217 578.12951425 402.60971776 C578.13620895 400.36116463 578.13574588 398.11266922 578.13533622 395.86410695 C578.13863455 394.24204709 578.14236005 392.61998804 578.1464777 390.99793005 C578.1565093 386.52793169 578.16021635 382.05794675 578.16286701 377.58793873 C578.16676662 372.77183672 578.17634518 367.95574538 578.18507987 363.13965017 C578.20485381 351.5026468 578.21491158 339.86564255 578.22380766 328.22862658 C578.22818896 322.75107278 578.23355617 317.27351995 578.23879653 311.79596692 C578.25580959 293.59172721 578.27030439 275.38748811 578.27754527 257.18324167 C578.27945523 252.45781943 578.28137555 247.73239721 578.28333122 243.006975 C578.28381496 241.83246776 578.2842987 240.65796053 578.28479709 239.44786217 C578.29309975 220.41597345 578.3184403 201.38414754 578.35091189 182.35228626 C578.38396441 162.82101705 578.40199239 143.28977978 578.40518951 123.75848246 C578.40735626 112.78899518 578.41612908 101.81959949 578.44165069 90.85013944 C578.46333296 81.5091874 578.47142028 72.1683492 578.46168391 62.82737485 C578.45713207 58.06082173 578.45907676 53.29450359 578.47844535 48.52798253 C578.49602668 44.16363516 578.49512033 39.7996951 578.47954806 35.43534371 C578.47716433 33.85723464 578.48153514 32.27909774 578.49337671 30.7010313 C578.5847053 19.32797497 578.5847053 19.32797497 573.9881652 9.12880117 C566.72588648 2.22963639 559.13648034 1.97804629 549.57614261 1.9973734 C548.15916635 1.99429445 548.15916635 1.99429445 546.71356431 1.9911533 C543.53613856 1.98548176 540.35875613 1.98694074 537.18132621 1.98835927 C534.8850478 1.98577574 532.58876984 1.98276261 530.29249251 1.97935587 C523.97274528 1.97128146 517.6530094 1.96949606 511.33325762 1.9687584 C505.22056899 1.96758132 499.10788522 1.96078111 492.99519995 1.95467999 C476.62045896 1.93862614 460.24571891 1.93271772 443.87097146 1.92793124 C436.12509375 1.92559501 428.37921679 1.92199236 420.63333965 1.91823587 C394.11900762 1.90540185 367.60467599 1.89468179 341.09034091 1.89123327 C339.42621497 1.89101163 337.76208903 1.89078985 336.09796308 1.89056791 C334.42982339 1.89034727 332.7616837 1.89012679 331.09354401 1.88990647 C327.74697568 1.88946391 324.40040735 1.8890168 321.05383903 1.88856679 C319.80920918 1.88840271 319.80920918 1.88840271 318.5394353 1.8882353 C291.62692134 1.88460364 264.71443431 1.86867868 237.80193067 1.84537643 C209.34871752 1.82078517 180.89551976 1.80706079 152.44229567 1.80586535 C149.31946613 1.80569389 146.1966366 1.80547846 143.07380706 1.80523092 C142.30487805 1.80517515 141.53594904 1.80511938 140.74371916 1.80506192 C128.36601573 1.80391097 115.98833993 1.79288538 103.61064584 1.77834386 C91.17242898 1.76398376 78.73424757 1.76073915 66.2960247 1.76878384 C59.55676998 1.77284951 52.81761384 1.77172446 46.07836944 1.75772649 C39.91062379 1.74503247 33.74304148 1.74614553 27.5752962 1.7583172 C25.3424888 1.76028199 23.10967001 1.75715992 20.87687864 1.74847284 C17.84362401 1.73741735 14.81094961 1.74484301 11.77771121 1.75686437 C10.90944901 1.74926918 10.04118681 1.74167398 9.14661363 1.73384863 C0.44435175 1.80837956 -6.84661771 3.8167932 -13.0118348 10.12880117 Z " fill="#AAAAAA" transform="translate(20.011834800243378,85.87119883298874)"/>
<path d="M0 0 C1.22589844 0.01353516 1.22589844 0.01353516 2.4765625 0.02734375 C3.41628906 0.04474609 3.41628906 0.04474609 4.375 0.0625 C4.6225 1.5784375 4.6225 1.5784375 4.875 3.125 C6.63300016 9.16812555 11.68436918 12.49365526 16.9140625 15.54296875 C23.90329419 19.14316211 30.48954961 21.47788902 38.375 22.0625 C39.68210937 22.16111328 39.68210937 22.16111328 41.015625 22.26171875 C47.24978651 22.51421971 53.42181832 22.27491567 58.375 18.0625 C59.68392592 15.09185173 60.16127129 12.28911411 60.375 9.0625 C66.26261439 11.44558202 70.52772652 15.36795303 73.375 21.0625 C73.76191286 25.70545428 73.84690735 28.1186853 71.75 32.3125 C67.3762926 37.37679278 62.10921371 40.53286274 55.38476562 41.28515625 C33.56620712 42.43246032 13.16965413 36.69132456 -4.171875 23.2734375 C-8.73837618 19.15776924 -11.31160663 15.88304034 -12 9.6875 C-11.625 6.0625 -11.625 6.0625 -9.25 3.1875 C-5.81720814 0.40857326 -4.31673902 -0.0616677 0 0 Z " fill="#EA0000" transform="translate(73.625,169.9375)"/>
<path d="M0 0 C2.3125 0.25 2.3125 0.25 5 1 C8.06556598 1.73343428 8.06556598 1.73343428 11 2 C11.99 1.34 12.98 0.68 14 0 C22.58341472 0.13624468 31.03936655 2.77177387 37.74609375 8.23828125 C40.40427772 11.49536282 41.04908806 13.82579006 41.8125 17.9375 C42.16248047 19.71447266 42.16248047 19.71447266 42.51953125 21.52734375 C43.66744186 29.82403101 43.66744186 29.82403101 41.6875 33.3125 C37.57594706 37.42405294 30.81902049 36.30773412 25.40063477 36.31689453 C12.99109325 36.12697051 3.69092124 30.85419776 -6.1875 23.6875 C-8.50404505 20.25262286 -8.35329439 18.40614329 -7.65234375 14.4140625 C-6.21616642 9.0993464 -4.39404568 3.56519468 0 0 Z " fill="#EB0000" transform="translate(89,147)"/>
<path d="M0 0 C2.91340649 0.09625883 5.82631866 0.13513518 8.74100018 0.1713953 C14.75210678 0.24722628 20.76298224 0.36640106 26.77093506 0.5758667 C28.35759224 0.62802086 28.35759224 0.62802086 29.9763031 0.68122864 C32.48309326 1.00921631 32.48309326 1.00921631 34.48309326 3.00921631 C34.71014404 5.34759521 34.71014404 5.34759521 34.67840576 8.23577881 C34.67196045 9.26702881 34.66551514 10.29827881 34.65887451 11.36077881 C34.63373779 12.98113037 34.63373779 12.98113037 34.60809326 14.63421631 C34.59906982 15.72218506 34.59004639 16.81015381 34.58074951 17.93109131 C34.55712735 20.62401783 34.52418882 23.31650886 34.48309326 26.00921631 C32.54559326 26.57171631 32.54559326 26.57171631 30.48309326 27.00921631 C30.15309326 26.67921631 29.82309326 26.34921631 29.48309326 26.00921631 C29.48309326 19.40921631 29.48309326 12.80921631 29.48309326 6.00921631 C11.00309326 6.00921631 -7.47690674 6.00921631 -26.51690674 6.00921631 C-26.51690674 9.63921631 -26.51690674 13.26921631 -26.51690674 17.00921631 C-26.84690674 17.33921631 -27.17690674 17.66921631 -27.51690674 18.00921631 C-31.14690674 18.00921631 -34.77690674 18.00921631 -38.51690674 18.00921631 C-38.51690674 30.54921631 -38.51690674 43.08921631 -38.51690674 56.00921631 C-20.69690674 56.00921631 -2.87690674 56.00921631 15.48309326 56.00921631 C15.48309326 57.32921631 15.48309326 58.64921631 15.48309326 60.00921631 C8.06849384 60.03234514 0.65390215 60.05013415 -6.76072598 60.06102848 C-10.20331022 60.06625613 -13.64586986 60.07335162 -17.08843994 60.08465576 C-21.04245717 60.09755866 -24.99646429 60.10244549 -28.95050049 60.10687256 C-30.81296669 60.11461449 -30.81296669 60.11461449 -32.71305847 60.12251282 C-34.42471947 60.12262611 -34.42471947 60.12262611 -36.17095947 60.1227417 C-37.18133774 60.12496231 -38.191716 60.12718292 -39.23271179 60.12947083 C-41.51690674 60.00921631 -41.51690674 60.00921631 -42.51690674 59.00921631 C-43.24895739 52.87341232 -43.17489768 46.59360307 -43.30645752 40.42181396 C-43.36286614 38.33405021 -43.44440263 36.24679547 -43.55255127 34.16107178 C-44.58896071 13.78701667 -44.58896071 13.78701667 -37.94268799 6.11468506 C-28.37628767 -2.95995515 -12.23640993 -0.46158798 0 0 Z " fill="#E0E0E0" transform="translate(509.51690673828125,141.99078369140625)"/>
<path d="M0 0 C3.17625 -0.061875 6.3525 -0.12375 9.625 -0.1875 C11.1092749 -0.22846802 11.1092749 -0.22846802 12.62353516 -0.27026367 C17.82669214 -0.31917145 21.54756216 -0.01276945 26 3 C28.68186667 7.0228 28.57140016 10.27528823 28 15 C26.625 17.5625 26.625 17.5625 25 19 C24.34 19 23.68 19 23 19 C23.433125 19.83144531 23.86625 20.66289062 24.3125 21.51953125 C24.869375 22.60621094 25.42625 23.69289062 26 24.8125 C26.556875 25.89144531 27.11375 26.97039062 27.6875 28.08203125 C29 31 29 31 29 34 C26.03 34 23.06 34 20 34 C19.63648438 33.14535156 19.27296875 32.29070312 18.8984375 31.41015625 C18.39570313 30.30542969 17.89296875 29.20070312 17.375 28.0625 C16.88773438 26.96035156 16.40046875 25.85820312 15.8984375 24.72265625 C15.27195313 23.82417969 14.64546875 22.92570312 14 22 C12.02 21.67 10.04 21.34 8 21 C8 25.29 8 29.58 8 34 C5.36 34 2.72 34 0 34 C0 22.78 0 11.56 0 0 Z " fill="#F7F7F7" transform="translate(163,162)"/>
<path d="M0 0 C0 11.55 0 23.1 0 35 C-3.66666667 35 -7.33333333 35 -11 35 C-12.2375 35.12375 -13.475 35.2475 -14.75 35.375 C-19.27605754 35.40846438 -21.45278557 33.5251635 -24.65234375 30.5078125 C-27.73798094 27.0554764 -27.57619655 23.29955387 -27.53515625 18.84375 C-26.730783 14.56941623 -24.7144319 12.71631344 -21.30078125 10.17578125 C-17.57947326 8.27406019 -15.12321063 8.44092059 -11 9 C-10.01 9.33 -9.02 9.66 -8 10 C-8 7.03 -8 4.06 -8 1 C-4 0 -4 0 0 0 Z " fill="#F3F3F3" transform="translate(247,161)"/>
<path d="M0 0 C3.01125 -0.0825 6.0225 -0.165 9.125 -0.25 C10.06230957 -0.28641602 10.99961914 -0.32283203 11.96533203 -0.36035156 C17.5015014 -0.43345966 20.61058179 0.30796599 25 4 C27 6 27 6 27.375 9.8125 C27.30270863 13.11983012 26.96995307 14.04807509 25.125 17 C23 19 23 19 21 19 C24.465 25.93 24.465 25.93 28 33 C25.36 33 22.72 33 20 33 C19.64808594 32.21753906 19.29617187 31.43507813 18.93359375 30.62890625 C16.49330654 24.94188753 16.49330654 24.94188753 12.04296875 21.046875 C9.92854386 20.72992304 9.92854386 20.72992304 7 21 C7 24.96 7 28.92 7 33 C4.69 33 2.38 33 0 33 C0 22.11 0 11.22 0 0 Z " fill="#F5F5F5" transform="translate(65,359)"/>
<path d="M0 0 C3.5386994 1.65139305 4.81070153 2.71605229 7 6 C7.23046875 8.41015625 7.23046875 8.41015625 7.1875 11.0625 C7.18105469 11.94035156 7.17460938 12.81820312 7.16796875 13.72265625 C7 16 7 16 6 18 C5.84824451 19.59262066 5.75099675 21.19064856 5.68359375 22.7890625 C5.64169922 23.73007813 5.59980469 24.67109375 5.55664062 25.640625 C5.51732422 26.62546875 5.47800781 27.6103125 5.4375 28.625 C5.39431641 29.61757812 5.35113281 30.61015625 5.30664062 31.6328125 C5.20038931 34.08839838 5.09835036 36.54408703 5 39 C3.171875 39.62109375 3.171875 39.62109375 1 40 C-1.75 38.0625 -1.75 38.0625 -4 36 C-4.5775 36.680625 -5.155 37.36125 -5.75 38.0625 C-6.4925 38.701875 -7.235 39.34125 -8 40 C-10.140625 39.62109375 -10.140625 39.62109375 -12 39 C-12.02505615 38.37432129 -12.0501123 37.74864258 -12.07592773 37.10400391 C-12.19175273 34.27745381 -12.31453985 31.45124831 -12.4375 28.625 C-12.47681641 27.64015625 -12.51613281 26.6553125 -12.55664062 25.640625 C-12.59853516 24.69960937 -12.64042969 23.75859375 -12.68359375 22.7890625 C-12.72025146 21.91975098 -12.75690918 21.05043945 -12.79467773 20.15478516 C-12.87401544 17.9516738 -12.87401544 17.9516738 -14 16 C-14.64507919 10.79328939 -14.9173523 7.18290165 -11.625 2.9375 C-7.49664944 -0.10961589 -5.16178257 -0.34995136 0 0 Z " fill="#E5E5E5" transform="translate(542,174)"/>
<path d="M0 0 C2.64 0 5.28 0 8 0 C8 4.29 8 8.58 8 13 C12.29 13 16.58 13 21 13 C21 8.71 21 4.42 21 0 C23.97 0 26.94 0 30 0 C30.02465288 4.68139254 30.04283739 9.36274759 30.05493164 14.04418945 C30.05997157 15.63794614 30.0668035 17.23169819 30.07543945 18.82543945 C30.08751999 21.11150253 30.09323155 23.39750467 30.09765625 25.68359375 C30.10281754 26.40026718 30.10797882 27.11694061 30.11329651 27.85533142 C30.11349263 29.57063672 30.06192007 31.28581266 30 33 C29 34 29 34 27.15234375 34.09765625 C25.1015625 34.06510417 23.05078125 34.03255208 21 34 C21 29.71 21 25.42 21 21 C16.71 21 12.42 21 8 21 C8 25.29 8 29.58 8 34 C5.36 34 2.72 34 0 34 C0 22.78 0 11.56 0 0 Z " fill="#F0F0F0" transform="translate(258,162)"/>
<path d="M0 0 C0 11.22 0 22.44 0 34 C-4.5478125 34.1546875 -4.5478125 34.1546875 -9.1875 34.3125 C-10.13391357 34.35802002 -11.08032715 34.40354004 -12.05541992 34.45043945 C-16.54087359 34.52423685 -18.39843716 34.47675406 -22.03125 31.59765625 C-25.6008193 26.88780787 -26.62736705 24.06454817 -26 18 C-23.97333762 14.29609979 -22.51955484 12.34636989 -19 10 C-16.625 9.76953125 -16.625 9.76953125 -14 9.8125 C-13.13375 9.81894531 -12.2675 9.82539063 -11.375 9.83203125 C-9 10 -9 10 -6 11 C-6 7.7 -6 4.4 -6 1 C-2 0 -2 0 0 0 Z " fill="#F5F5F5" transform="translate(446,358)"/>
<path d="M0 0 C1.98 0 3.96 0 6 0 C6 10.89 6 21.78 6 33 C3.15375 33.103125 0.3075 33.20625 -2.625 33.3125 C-3.51010254 33.35802002 -4.39520508 33.40354004 -5.30712891 33.45043945 C-9.49984343 33.52357368 -12.20213361 33.30837087 -15.5234375 30.60546875 C-19.32654083 26.6044121 -19.39043663 23.91667812 -19.359375 18.55078125 C-18.78039966 14.44131496 -17.00085071 12.78650423 -14 10 C-11.51245214 8.75622607 -9.77344699 8.86693765 -7 8.875 C-6.113125 8.87242187 -5.22625 8.86984375 -4.3125 8.8671875 C-2 9 -2 9 0 10 C0 6.7 0 3.4 0 0 Z " fill="#FBFBFB" transform="translate(141,359)"/>
<path d="M0 0 C2.31 0 4.62 0 7 0 C7 4.29 7 8.58 7 13 C11.95 13 16.9 13 22 13 C22 8.71 22 4.42 22 0 C24.31 0 26.62 0 29 0 C29 10.89 29 21.78 29 33 C26.69 33 24.38 33 22 33 C22 28.71 22 24.42 22 20 C17.05 20 12.1 20 7 20 C7 24.29 7 28.58 7 33 C4.69 33 2.38 33 0 33 C0 22.11 0 11.22 0 0 Z " fill="#F1F1F1" transform="translate(162,359)"/>
<path d="M0 0 C0 11.22 0 22.44 0 34 C-2.66666667 34 -5.33333333 34 -8 34 C-9.258125 34.0825 -10.51625 34.165 -11.8125 34.25 C-16.20956401 34.24190228 -18.66272924 32.93997662 -22 30 C-24.40359514 26.06684432 -24.88903245 21.50677837 -24 17 C-22.24934612 13.98028475 -20.16867619 11.58433809 -17 10 C-15.33555539 9.9044069 -13.66718037 9.87015355 -12 9.875 C-11.113125 9.87242187 -10.22625 9.86984375 -9.3125 9.8671875 C-7 10 -7 10 -5 11 C-5 7.7 -5 4.4 -5 1 C-2 0 -2 0 0 0 Z " fill="#F0F0F0" transform="translate(290,415)"/>
<path d="M0 0 C3.07365786 1.80803404 4.43019732 2.86039464 6 6 C6.08372659 7.52148326 6.10730027 9.04655778 6.09765625 10.5703125 C6.09443359 11.46621094 6.09121094 12.36210937 6.08789062 13.28515625 C6.07951172 14.22230469 6.07113281 15.15945312 6.0625 16.125 C6.05798828 17.06988281 6.05347656 18.01476562 6.04882812 18.98828125 C6.03702357 21.32558387 6.02055759 23.66276061 6 26 C2.33333333 26 -1.33333333 26 -5 26 C-6.27875 26.103125 -7.5575 26.20625 -8.875 26.3125 C-12.34203458 26.30610326 -12.97834265 26.01534062 -16 23.875 C-18 21 -18 21 -18.5625 17.9375 C-17.86291271 14.28409968 -16.91461782 13.26692497 -14 11 C-10.984375 10.609375 -10.984375 10.609375 -7.75 10.75 C-6.67234375 10.78609375 -5.5946875 10.8221875 -4.484375 10.859375 C-3.25460937 10.92898437 -3.25460937 10.92898437 -2 11 C-2.33 10.01 -2.66 9.02 -3 8 C-3.84304688 8.03480469 -4.68609375 8.06960937 -5.5546875 8.10546875 C-6.65039062 8.13253906 -7.74609375 8.15960938 -8.875 8.1875 C-10.51082031 8.23970703 -10.51082031 8.23970703 -12.1796875 8.29296875 C-13.11039062 8.19628906 -14.04109375 8.09960938 -15 8 C-17 5 -17 5 -17 2 C-11.39894473 -0.57401437 -6.07349843 -0.70563467 0 0 Z " fill="#F0F0F0" transform="translate(308,170)"/>
<path d="M0 0 C3.43761572 2.12108204 5.77560839 4.1042085 7 8 C7.46931049 12.2237944 7.28387834 14.45327135 5.3125 18.25 C1.9735971 22.22058723 -0.23663163 23.80763254 -5.4375 24.375 C-9.41345159 23.95647878 -11.69723365 23.25188615 -15 21 C-17.6963019 17.13530061 -18.59969567 13.60205711 -18.421875 8.9609375 C-17.6380264 5.31749306 -15.67324109 3.55173013 -13 1 C-8.63759734 -1.6983934 -4.84522333 -1.20265365 0 0 Z " fill="#ECECEC" transform="translate(499,425)"/>
<path d="M0 0 C3.06898487 2.06978049 4.28784869 3.39113014 5.6875 6.8125 C5.6875 9.1225 5.6875 11.4325 5.6875 13.8125 C0.0775 13.8125 -5.5325 13.8125 -11.3125 13.8125 C-10.3225 15.2975 -10.3225 15.2975 -9.3125 16.8125 C-6.7358497 17.02464273 -4.2992705 16.80714652 -1.72265625 16.625 C0.6875 16.8125 0.6875 16.8125 2.50390625 18.3125 C2.89449219 18.8075 3.28507812 19.3025 3.6875 19.8125 C2.6875 22.8125 2.6875 22.8125 0.8984375 23.9765625 C-2.84099446 25.39041133 -6.37911183 25.37246151 -10.3125 24.8125 C-14.29607852 22.74694077 -16.93713305 20.60080074 -19.3125 16.8125 C-20.05950572 12.3084949 -19.83578795 8.10694915 -18.125 3.875 C-12.98464119 -1.97437381 -7.07049936 -2.53470732 0 0 Z " fill="#F7F7F7" transform="translate(211.3125,171.1875)"/>
<path d="M0 0 C1.4540625 0.0309375 1.4540625 0.0309375 2.9375 0.0625 C15.9375 27.17788462 15.9375 27.17788462 15.9375 33.0625 C14.2875 33.0625 12.6375 33.0625 10.9375 33.0625 C9.6175 30.0925 8.2975 27.1225 6.9375 24.0625 C1.9875 23.7325 -2.9625 23.4025 -8.0625 23.0625 C-8.3925 24.7125 -8.7225 26.3625 -9.0625 28.0625 C-9.69687344 29.7417238 -10.35539322 31.41258418 -11.0625 33.0625 C-12.7125 33.0625 -14.3625 33.0625 -16.0625 33.0625 C-15.39766497 29.01902595 -14.14299658 25.4917775 -12.59375 21.703125 C-11.86091797 19.90681641 -11.86091797 19.90681641 -11.11328125 18.07421875 C-10.85885254 17.45724121 -10.60442383 16.84026367 -10.34228516 16.20458984 C-9.56003665 14.30652287 -8.78538382 12.40548581 -8.01171875 10.50390625 C-3.73922283 0.07631067 -3.73922283 0.07631067 0 0 Z " fill="#F0F0F0" transform="translate(249.0625,415.9375)"/>
<path d="M0 0 C1.670625 0.99 1.670625 0.99 3.375 2 C3.375 3.32 3.375 4.64 3.375 6 C1.75 7.1875 1.75 7.1875 -0.625 8 C-2.64223344 7.03523618 -4.64112292 6.03161608 -6.625 5 C-10.60481137 4.43145552 -12.06504053 4.62669368 -15.4375 6.875 C-18.24682587 9.60405942 -18.57751268 10.37079301 -18.875 14.3125 C-18.61167452 18.19655077 -17.96093632 19.94531404 -15.625 23 C-13.2853331 24.16983345 -11.79108473 24.1661241 -9.1875 24.1875 C-8.01380859 24.20876953 -8.01380859 24.20876953 -6.81640625 24.23046875 C-4.33294013 24.14086064 -4.33294013 24.14086064 -1.625 22 C0.4375 22.1875 0.4375 22.1875 2.375 23 C3.035 23.99 3.695 24.98 4.375 26 C-0.67268961 30.32659109 -4.67900141 32.5634338 -11.50390625 32.3828125 C-16.72612758 31.44031215 -20.58741621 28.14400264 -24.0625 24.3125 C-27.22450355 19.63273475 -27.33173805 15.5564233 -26.625 10 C-24.70142026 4.92796013 -21.5504761 1.01588401 -16.640625 -1.375 C-10.80236525 -3.1853131 -5.4419557 -2.6968984 0 0 Z " fill="#F3F3F3" transform="translate(276.625,361)"/>
<path d="M0 0 C3.80504002 2.08904158 6.90786028 4.14605841 9 8 C9.33 10.31 9.66 12.62 10 15 C4.06 15 -1.88 15 -8 15 C-7.67 15.99 -7.34 16.98 -7 18 C-4.47524538 19.26237731 -2.68799534 19.09856404 0.125 19.0625 C1.03507812 19.05347656 1.94515625 19.04445313 2.8828125 19.03515625 C3.58148438 19.02355469 4.28015625 19.01195312 5 19 C5.66 20.32 6.32 21.64 7 23 C3.41657066 25.687572 0.49933288 26.53405376 -4.0078125 26.35546875 C-8.12657672 25.620552 -10.92193869 23.20928118 -13.63671875 20.1640625 C-16.04472851 16.34160574 -15.74145459 12.35261308 -15 8 C-13.34463204 4.78122896 -11.01392624 2.71956056 -8.0625 0.625 C-5.15227888 -0.25688519 -3.03383286 -0.36405994 0 0 Z " fill="#EFEFEF" transform="translate(298,367)"/>
<path d="M0 0 C3.80504002 2.08904158 6.90786028 4.14605841 9 8 C9.33 10.31 9.66 12.62 10 15 C4.06 15 -1.88 15 -8 15 C-7.67 15.99 -7.34 16.98 -7 18 C-4.47524538 19.26237731 -2.68799534 19.09856404 0.125 19.0625 C1.03507812 19.05347656 1.94515625 19.04445313 2.8828125 19.03515625 C3.58148438 19.02355469 4.28015625 19.01195312 5 19 C5.66 20.32 6.32 21.64 7 23 C3.41657066 25.687572 0.49933288 26.53405376 -4.0078125 26.35546875 C-8.12657672 25.620552 -10.92193869 23.20928118 -13.63671875 20.1640625 C-16.04472851 16.34160574 -15.74145459 12.35261308 -15 8 C-13.34463204 4.78122896 -11.01392624 2.71956056 -8.0625 0.625 C-5.15227888 -0.25688519 -3.03383286 -0.36405994 0 0 Z " fill="#EFEFEF" transform="translate(109,367)"/>
<path d="M0 0 C2.01105243 1.77654026 2.70112148 2.75399709 3.25708008 5.40307617 C3.36829561 8.10216219 3.30101686 10.73260486 3.15234375 13.4296875 C3.12527344 14.36103516 3.09820312 15.29238281 3.0703125 16.25195312 C2.99982625 18.54275622 2.90138621 20.82876313 2.77734375 23.1171875 C0.75911458 23.08463542 -1.25911458 23.05208333 -3.27734375 23.01953125 C-5.30451029 22.99069508 -5.30451029 22.99069508 -7.22265625 24.1171875 C-11.87051005 24.53033006 -14.46705777 23.90706066 -18.22265625 21.1171875 C-19.64307446 18.27635109 -19.53717897 16.26241472 -19.22265625 13.1171875 C-17.91015625 10.7421875 -17.91015625 10.7421875 -15.22265625 9.1171875 C-11.53192608 8.78794251 -7.91738159 8.88785972 -4.22265625 9.1171875 C-4.55265625 7.7971875 -4.88265625 6.4771875 -5.22265625 5.1171875 C-7.10984375 5.08625 -7.10984375 5.08625 -9.03515625 5.0546875 C-9.74285156 5.04308594 -10.45054687 5.03148437 -11.1796875 5.01953125 C-13.42571086 5.03455533 -13.42571086 5.03455533 -16.22265625 6.1171875 C-16.88265625 4.1371875 -17.54265625 2.1571875 -18.22265625 0.1171875 C-11.82297623 -2.01603917 -6.17858196 -3.60978971 0 0 Z " fill="#F3F3F3" transform="translate(214.22265625,368.8828125)"/>
<path d="M0 0 C2.875 1.5 2.875 1.5 5 3 C5.680625 2.484375 6.36125 1.96875 7.0625 1.4375 C10.90525323 -0.44299626 12.91132242 -0.11509388 17 1 C19.19921875 2.41796875 19.19921875 2.41796875 21 5 C21.49321593 8.42893446 21.37581146 11.79502381 21.25 15.25 C21.23195313 16.18585938 21.21390625 17.12171875 21.1953125 18.0859375 C21.14825673 20.39167015 21.08253713 22.69530945 21 25 C19.68 25 18.36 25 17 25 C16.93941406 23.79601562 16.87882812 22.59203125 16.81640625 21.3515625 C16.73200268 19.77602923 16.64735459 18.20050904 16.5625 16.625 C16.52318359 15.8309375 16.48386719 15.036875 16.44335938 14.21875 C16.31106596 9.97398779 16.31106596 9.97398779 15 6 C12.66705225 5.95758277 10.33297433 5.95907063 8 6 C6.48578999 7.51421001 6.78690144 8.92472768 6.68359375 11.03515625 C6.64169922 11.84404297 6.59980469 12.65292969 6.55664062 13.48632812 C6.51732422 14.33646484 6.47800781 15.18660156 6.4375 16.0625 C6.39431641 16.91650391 6.35113281 17.77050781 6.30664062 18.65039062 C6.20023298 20.76672037 6.09958269 22.88333813 6 25 C4.35 25 2.7 25 1 25 C0.93941406 23.71222656 0.87882812 22.42445313 0.81640625 21.09765625 C0.73201753 19.41925841 0.6473687 17.74087364 0.5625 16.0625 C0.52318359 15.21236328 0.48386719 14.36222656 0.44335938 13.48632812 C0.38051758 12.27299805 0.38051758 12.27299805 0.31640625 11.03515625 C0.27974854 10.2862915 0.24309082 9.53742676 0.20532227 8.76586914 C0.18228937 6.97538674 0.18228937 6.97538674 -1 6 C-4.5 5.83333333 -4.5 5.83333333 -8 6 C-9.51421001 7.51421001 -9.21309856 8.92472768 -9.31640625 11.03515625 C-9.35830078 11.84404297 -9.40019531 12.65292969 -9.44335938 13.48632812 C-9.48267578 14.33646484 -9.52199219 15.18660156 -9.5625 16.0625 C-9.60568359 16.91650391 -9.64886719 17.77050781 -9.69335938 18.65039062 C-9.79976702 20.76672037 -9.90041731 22.88333813 -10 25 C-11.65 25 -13.3 25 -15 25 C-15 17.08 -15 9.16 -15 1 C-12.66666667 1 -10.33333333 1 -8 1 C-5.17998673 -0.41000664 -3.12992745 -0.24548451 0 0 Z " fill="#E8E8E8" transform="translate(310,424)"/>
<path d="M0 0 C4.84960158 2.47234591 7.12281421 4.88988314 9 10 C9 11.65 9 13.3 9 15 C3.06 15 -2.88 15 -9 15 C-6.55200795 19.24429019 -6.55200795 19.24429019 -3.30078125 19.390625 C-2.31464844 19.34421875 -1.32851563 19.2978125 -0.3125 19.25 C0.68136719 19.21390625 1.67523438 19.1778125 2.69921875 19.140625 C3.45847656 19.09421875 4.21773438 19.0478125 5 19 C5.66 20.32 6.32 21.64 7 23 C2.46139393 25.65674502 -0.7417577 26.65728029 -6 26 C-9.92961929 23.88405115 -12.62384099 21.76508864 -15 18 C-15.92034888 13.74071099 -15.95288209 9.66604541 -13.7578125 5.828125 C-9.73781714 0.98813058 -6.44018855 -0.63139103 0 0 Z " fill="#F1F1F1" transform="translate(408,367)"/>
<path d="M0 0 C2.4375 1.0625 2.4375 1.0625 4 2 C4.495 1.484375 4.99 0.96875 5.5 0.4375 C8.4867494 -1.2798809 10.61677764 -1.1296771 14 -0.8125 C17.20913898 0.49121271 18.26517281 2.00243354 20 5 C20.47223353 8.2887692 20.37849158 11.49889977 20.25 14.8125 C20.23195312 15.69615234 20.21390625 16.57980469 20.1953125 17.49023438 C20.14838513 19.66062543 20.07664731 21.83045519 20 24 C18.35 24 16.7 24 15 24 C14.93941406 22.71222656 14.87882812 21.42445313 14.81640625 20.09765625 C14.73201753 18.41925841 14.6473687 16.74087364 14.5625 15.0625 C14.52318359 14.21236328 14.48386719 13.36222656 14.44335938 12.48632812 C14.40146484 11.67744141 14.35957031 10.86855469 14.31640625 10.03515625 C14.27974854 9.2862915 14.24309082 8.53742676 14.20532227 7.76586914 C14.18228937 5.97538674 14.18228937 5.97538674 13 5 C9.5 4.83333333 9.5 4.83333333 6 5 C4.48578999 6.51421001 4.78690144 7.92472768 4.68359375 10.03515625 C4.64169922 10.84404297 4.59980469 11.65292969 4.55664062 12.48632812 C4.51732422 13.33646484 4.47800781 14.18660156 4.4375 15.0625 C4.39431641 15.91650391 4.35113281 16.77050781 4.30664062 17.65039062 C4.20023298 19.76672037 4.09958269 21.88333813 4 24 C2.68 24 1.36 24 0 24 C-0.04898438 22.79601562 -0.09796875 21.59203125 -0.1484375 20.3515625 C-0.22346343 18.77601802 -0.29901133 17.20049834 -0.375 15.625 C-0.4059375 14.8309375 -0.436875 14.036875 -0.46875 13.21875 C-0.51816421 8.63332625 -0.51816421 8.63332625 -3 5 C-5.31 5 -7.62 5 -10 5 C-10.33 11.27 -10.66 17.54 -11 24 C-12.65 24 -14.3 24 -16 24 C-16 16.08 -16 8.16 -16 0 C-13.69 0 -11.38 0 -9 0 C-5.88094953 -1.55952523 -3.35318513 -0.6359489 0 0 Z " fill="#ECECEC" transform="translate(200,425)"/>
<path d="M0 0 C1.62109375 0.828125 1.62109375 0.828125 3.80859375 2.328125 C3.47859375 3.648125 3.14859375 4.968125 2.80859375 6.328125 C-1.94140625 5.453125 -1.94140625 5.453125 -4.19140625 4.328125 C-5.68897496 4.23312997 -7.19083557 4.19825302 -8.69140625 4.203125 C-9.48546875 4.20054687 -10.27953125 4.19796875 -11.09765625 4.1953125 C-13.25059159 4.19534504 -13.25059159 4.19534504 -15.19140625 5.328125 C-15.19140625 7.308125 -15.19140625 9.288125 -15.19140625 11.328125 C-13.88816406 11.47507812 -13.88816406 11.47507812 -12.55859375 11.625 C-0.30451679 13.21501446 -0.30451679 13.21501446 4.80859375 18.328125 C5.52053754 25.44756294 5.52053754 25.44756294 2.43359375 29.265625 C-2.70610946 33.30396323 -7.82098385 33.07478299 -14.19140625 32.328125 C-17.19184016 31.02398503 -19.67078395 29.4039316 -22.19140625 27.328125 C-21.53140625 26.008125 -20.87140625 24.688125 -20.19140625 23.328125 C-16.19140625 25.328125 -16.19140625 25.328125 -14.37890625 26.453125 C-10.46282708 28.01955667 -6.63656985 27.92101263 -2.75390625 26.328125 C-2.23828125 25.998125 -1.72265625 25.668125 -1.19140625 25.328125 C-1.19140625 23.678125 -1.19140625 22.028125 -1.19140625 20.328125 C-4.51285011 18.77811786 -7.60069486 18.07834843 -11.19140625 17.515625 C-15.87738628 16.61339899 -18.41247788 15.40388661 -21.19140625 11.328125 C-21.93603865 7.35675219 -21.56407503 5.88712817 -19.31640625 2.515625 C-14.63228174 -2.30626788 -6.18976308 -1.89775267 0 0 Z " fill="#EDEDED" transform="translate(84.19140625,416.671875)"/>
<path d="M0 0 C0 2.64 0 5.28 0 8 C2.31 8 4.62 8 7 8 C7 9.98 7 11.96 7 14 C4.69 14 2.38 14 0 14 C0.33 17.63 0.66 21.26 1 25 C2.98 25.33 4.96 25.66 7 26 C7.04254356 27.99954746 7.04080783 30.00041636 7 32 C5.44049449 33.55950551 3.91122869 33.28196698 1.75 33.375 C-1.60713324 33.28933153 -3.00962612 32.99489226 -6.0625 31.375 C-9.20064263 25.90855799 -8.37492706 20.15713548 -8 14 C-9.65 14 -11.3 14 -13 14 C-13 12.02 -13 10.04 -13 8 C-11.35 7.67 -9.7 7.34 -8 7 C-8 5.02 -8 3.04 -8 1 C-5.07175348 0.02391783 -3.04386724 -0.08226668 0 0 Z " fill="#F3F3F3" transform="translate(328,163)"/>
<path d="M0 0 C2.8100346 1.79363911 4.50940468 3.01880935 6 6 C6.08342159 7.44848582 6.10732861 8.90070869 6.09765625 10.3515625 C6.09443359 11.20234375 6.09121094 12.053125 6.08789062 12.9296875 C6.07951172 13.81914062 6.07113281 14.70859375 6.0625 15.625 C6.05798828 16.5221875 6.05347656 17.419375 6.04882812 18.34375 C6.03702591 20.56256648 6.02056155 22.78125018 6 25 C3.33333333 25 0.66666667 25 -2 25 C-3.04994141 25.06960938 -3.04994141 25.06960938 -4.12109375 25.140625 C-10.31691416 25.43317639 -10.31691416 25.43317639 -13.5625 23.375 C-15.43910956 20.27451464 -15.59452734 18.56716403 -15 15 C-13.6875 12.625 -13.6875 12.625 -11 11 C-7.30926983 10.67075501 -3.69472534 10.77067222 0 11 C-0.37904208 7.70924004 -0.37904208 7.70924004 -2 5 C-5.83319229 4.82576399 -9.26835686 5.12196632 -13 6 C-13.33 4.68 -13.66 3.36 -14 2 C-9.03312696 0.01325078 -5.2749095 -0.50237233 0 0 Z " fill="#E9E9E9" transform="translate(454,424)"/>
<path d="M0 0 C3.51483623 2.05032114 5.70332836 4.10998507 7 8 C7 9.65 7 11.3 7 13 C0.73 13 -5.54 13 -12 13 C-10.23148964 16.18074165 -10.23148964 16.18074165 -8 19 C-6.14712498 19.07226502 -4.29166122 19.0838122 -2.4375 19.0625 C-1.42558594 19.05347656 -0.41367188 19.04445313 0.62890625 19.03515625 C1.41136719 19.02355469 2.19382813 19.01195312 3 19 C3 20.32 3 21.64 3 23 C-1.07437758 24.35812586 -4.74400091 24.65365174 -9 24 C-12.15273695 22.33716405 -14.26790517 19.99831113 -16.375 17.125 C-17.32425152 13.89754484 -17.3465354 11.34984219 -17 8 C-12.77551307 0.27938595 -8.38374316 -1.09819 0 0 Z " fill="#F2F2F2" transform="translate(173,425)"/>
<path d="M0 0 C0 1.65 0 3.3 0 5 C-0.804375 5.2475 -1.60875 5.495 -2.4375 5.75 C-5.171081 6.72238859 -5.171081 6.72238859 -5.8125 9.125 C-5.874375 9.74375 -5.93625 10.3625 -6 11 C-3.69 11 -1.38 11 1 11 C1 12.65 1 14.3 1 16 C-1.31 16 -3.62 16 -6 16 C-6 22.27 -6 28.54 -6 35 C-8.31 35 -10.62 35 -13 35 C-13 28.73 -13 22.46 -13 16 C-14.65 16 -16.3 16 -18 16 C-18 14.35 -18 12.7 -18 11 C-16.02 11 -14.04 11 -12 11 C-12.12375 9.39125 -12.12375 9.39125 -12.25 7.75 C-12 4 -12 4 -10.5 1.5625 C-6.86353539 -0.71029038 -4.24217465 -0.28281164 0 0 Z " fill="#F3F3F3" transform="translate(378,357)"/>
<path d="M0 0 C0 2.64 0 5.28 0 8 C2.31 8 4.62 8 7 8 C7 9.65 7 11.3 7 13 C4.69 13 2.38 13 0 13 C0.33 17.29 0.66 21.58 1 26 C2.98 26.33 4.96 26.66 7 27 C7 28.65 7 30.3 7 32 C3.64180183 33.67909909 0.29125123 33.39454899 -3.25 32.3125 C-5.67898812 30.49075891 -6.08711511 28.88947913 -7 26 C-7.1953125 22.66796875 -7.1953125 22.66796875 -7.125 19.1875 C-7.10695312 18.02605469 -7.08890625 16.86460937 -7.0703125 15.66796875 C-7.04710937 14.78753906 -7.02390625 13.90710938 -7 13 C-8.65 13 -10.3 13 -12 13 C-12 11.35 -12 9.7 -12 8 C-10.35 8 -8.7 8 -7 8 C-7 6.02 -7 4.04 -7 2 C-4.35261084 0.5393715 -3.10551666 0 0 0 Z " fill="#F0F0F0" transform="translate(231,360)"/>
<path d="M0 0 C1.98 0 3.96 0 6 0 C7.98 4.95 9.96 9.9 12 15 C13.98841412 12.01737882 15.53671732 9.02359325 17.125 5.8125 C17.66382812 4.72582031 18.20265625 3.63914062 18.7578125 2.51953125 C19.16773437 1.68808594 19.57765625 0.85664063 20 0 C21.65 0 23.3 0 25 0 C13.09900438 30.63892685 13.09900438 30.63892685 9 33.296875 C6.5782529 34.14827046 4.54827266 34.1415707 2 34 C2 32.35 2 30.7 2 29 C2.78375 28.938125 3.5675 28.87625 4.375 28.8125 C7.17646192 28.27095924 7.17646192 28.27095924 8.27490234 25.79418945 C9.18555336 22.28496357 8.60086441 20.80479365 7.2265625 17.48046875 C6.8140625 16.45888672 6.4015625 15.43730469 5.9765625 14.38476562 C5.53054687 13.32966797 5.08453125 12.27457031 4.625 11.1875 C4.18671875 10.11306641 3.7484375 9.03863281 3.296875 7.93164062 C2.21308422 5.28106534 1.1138032 2.63807171 0 0 Z " fill="#EEEEEE" transform="translate(90,425)"/>
<path d="M0 0 C2.69990662 1.79993774 4.5418865 3.083773 6 6 C6.08342159 7.44848582 6.10732861 8.90070869 6.09765625 10.3515625 C6.09443359 11.20234375 6.09121094 12.053125 6.08789062 12.9296875 C6.07951172 13.81914062 6.07113281 14.70859375 6.0625 15.625 C6.05798828 16.5221875 6.05347656 17.419375 6.04882812 18.34375 C6.03702591 20.56256648 6.02056155 22.78125018 6 25 C4.35 25 2.7 25 1 25 C0.93941406 23.71222656 0.87882812 22.42445313 0.81640625 21.09765625 C0.73201753 19.41925841 0.6473687 17.74087364 0.5625 16.0625 C0.52318359 15.21236328 0.48386719 14.36222656 0.44335938 13.48632812 C0.38051758 12.27299805 0.38051758 12.27299805 0.31640625 11.03515625 C0.27974854 10.2862915 0.24309082 9.53742676 0.20532227 8.76586914 C0.18228937 6.97538674 0.18228937 6.97538674 -1 6 C-4.5 5.83333333 -4.5 5.83333333 -8 6 C-9.51421001 7.51421001 -9.21309856 8.92472768 -9.31640625 11.03515625 C-9.35830078 11.84404297 -9.40019531 12.65292969 -9.44335938 13.48632812 C-9.48267578 14.33646484 -9.52199219 15.18660156 -9.5625 16.0625 C-9.60568359 16.91650391 -9.64886719 17.77050781 -9.69335938 18.65039062 C-9.79976702 20.76672037 -9.90041731 22.88333813 -10 25 C-11.65 25 -13.3 25 -15 25 C-15 17.08 -15 9.16 -15 1 C-12.69 1 -10.38 1 -8 1 C-5.14675563 -0.42662219 -3.16545451 -0.31033868 0 0 Z " fill="#E9E9E9" transform="translate(362,424)"/>
<path d="M0 0 C0 2.64 0 5.28 0 8 C2.31 8 4.62 8 7 8 C7 9.65 7 11.3 7 13 C4.69 13 2.38 13 0 13 C0.33 17.29 0.66 21.58 1 26 C2.98 26.33 4.96 26.66 7 27 C7 28.65 7 30.3 7 32 C5.39667209 32.08121924 3.79215974 32.13929134 2.1875 32.1875 C0.84751953 32.23970703 0.84751953 32.23970703 -0.51953125 32.29296875 C-3 32 -3 32 -4.8125 31 C-6.71637898 27.79346697 -6.31051476 24.42408708 -6.1875 20.8125 C-6.17396484 20.06291016 -6.16042969 19.31332031 -6.14648438 18.54101562 C-6.11118539 16.69370233 -6.05737917 14.84675934 -6 13 C-7.65 13 -9.3 13 -11 13 C-11 11.35 -11 9.7 -11 8 C-9.35 8 -7.7 8 -6 8 C-6 5.69 -6 3.38 -6 1 C-1.125 0 -1.125 0 0 0 Z " fill="#FDFDFD" transform="translate(340,360)"/>
<path d="M0 0 C1.16015625 0.11794922 1.16015625 0.11794922 2.34375 0.23828125 C4.5 0.6875 4.5 0.6875 7.5 2.6875 C7.17 3.6775 6.84 4.6675 6.5 5.6875 C5.819375 5.5225 5.13875 5.3575 4.4375 5.1875 C1.0835178 4.61660941 -2.10389805 4.62090977 -5.5 4.6875 C-5.5 6.0075 -5.5 7.3275 -5.5 8.6875 C-4.82453125 8.78546875 -4.1490625 8.8834375 -3.453125 8.984375 C0.52401084 9.65106251 3.74521027 10.21356226 7.1875 12.375 C8.5 14.6875 8.5 14.6875 8.5625 18.25 C7.5 21.6875 7.5 21.6875 5.5625 23.625 C0.62484192 25.33806505 -4.94216757 25.81710112 -9.80859375 23.66796875 C-10.36675781 23.34441406 -10.92492187 23.02085937 -11.5 22.6875 C-11.17 21.3675 -10.84 20.0475 -10.5 18.6875 C-9.93796875 18.85121094 -9.3759375 19.01492188 -8.796875 19.18359375 C-6.36940944 19.71614997 -4.23110319 19.78648681 -1.75 19.75 C-0.55117188 19.73646484 -0.55117188 19.73646484 0.671875 19.72265625 C1.27515625 19.71105469 1.8784375 19.69945312 2.5 19.6875 C2.5 18.3675 2.5 17.0475 2.5 15.6875 C1.23542969 15.41486328 1.23542969 15.41486328 -0.0546875 15.13671875 C-1.15039062 14.88535156 -2.24609375 14.63398438 -3.375 14.375 C-4.46554687 14.13136719 -5.55609375 13.88773437 -6.6796875 13.63671875 C-9.5 12.6875 -9.5 12.6875 -11.5 9.6875 C-11.875 7.25 -11.875 7.25 -11.5 4.6875 C-8.10944069 0.47852982 -5.28790053 -0.59048223 0 0 Z " fill="#E7E7E7" transform="translate(393.5,424.3125)"/>
<path d="M0 0 C1.5778125 0.00580078 1.5778125 0.00580078 3.1875 0.01171875 C6 0.3125 6 0.3125 9 2.3125 C8.67 3.3025 8.34 4.2925 8 5.3125 C7.22914063 5.2403125 6.45828125 5.168125 5.6640625 5.09375 C4.66117188 5.0009375 3.65828125 4.908125 2.625 4.8125 C1.12839844 4.67328125 1.12839844 4.67328125 -0.3984375 4.53125 C-2.89703736 4.28457053 -2.89703736 4.28457053 -5 4.3125 C-4.67 5.6325 -4.34 6.9525 -4 8.3125 C-3.15695313 8.50585938 -2.31390625 8.69921875 -1.4453125 8.8984375 C-0.34960938 9.15882813 0.74609375 9.41921875 1.875 9.6875 C2.96554688 9.94273437 4.05609375 10.19796875 5.1796875 10.4609375 C8 11.3125 8 11.3125 10 13.3125 C10.4375 16.6875 10.4375 16.6875 10 20.3125 C7.85358002 23.01283482 6.28388982 24.12908717 2.83984375 24.62109375 C-1.52098738 24.7448569 -5.06044917 24.34581656 -9 22.3125 C-9 21.3225 -9 20.3325 -9 19.3125 C-4.66666667 19.3125 -0.33333333 19.3125 4 19.3125 C4 17.9925 4 16.6725 4 15.3125 C2.96939453 15.14814453 2.96939453 15.14814453 1.91796875 14.98046875 C1.01691406 14.82191406 0.11585937 14.66335938 -0.8125 14.5 C-1.70582031 14.34917969 -2.59914063 14.19835937 -3.51953125 14.04296875 C-6.23854812 13.2422504 -7.34049116 12.58824339 -9 10.3125 C-9.64737339 4.27034838 -9.64737339 4.27034838 -7.8515625 1.61328125 C-5.2065708 -0.24490912 -3.19988624 -0.05097858 0 0 Z " fill="#EEEEEE" transform="translate(126,424.6875)"/>
<path d="M0 0 C1.32 0 2.64 0 4 0 C4 2.31 4 4.62 4 7 C6.31 7 8.62 7 11 7 C11 8.32 11 9.64 11 11 C8.69 11 6.38 11 4 11 C4.33 15.95 4.66 20.9 5 26 C6.98 26.33 8.96 26.66 11 27 C11 28.32 11 29.64 11 31 C3.72727273 31.48484848 3.72727273 31.48484848 0.75 29.5 C-1.69466761 26.00761771 -1.43798423 22.84227203 -1.25 18.75 C-1.23195313 18.00492187 -1.21390625 17.25984375 -1.1953125 16.4921875 C-1.14835649 14.66090299 -1.07661652 12.83028351 -1 11 C-2.65 11 -4.3 11 -6 11 C-6 9.68 -6 8.36 -6 7 C-4.35 7 -2.7 7 -1 7 C-1.020625 6.030625 -1.04125 5.06125 -1.0625 4.0625 C-1 1 -1 1 0 0 Z " fill="#F1F1F1" transform="translate(468,418)"/>
<path d="M0 0 C1.32 0 2.64 0 4 0 C4 2.31 4 4.62 4 7 C6.31 7 8.62 7 11 7 C11 8.32 11 9.64 11 11 C8.69 11 6.38 11 4 11 C4.33 15.95 4.66 20.9 5 26 C6.98 26.33 8.96 26.66 11 27 C11 28.32 11 29.64 11 31 C3.72727273 31.48484848 3.72727273 31.48484848 0.75 29.5 C-1.69466761 26.00761771 -1.43798423 22.84227203 -1.25 18.75 C-1.23195313 18.00492187 -1.21390625 17.25984375 -1.1953125 16.4921875 C-1.14835649 14.66090299 -1.07661652 12.83028351 -1 11 C-2.65 11 -4.3 11 -6 11 C-6 9.68 -6 8.36 -6 7 C-4.35 7 -2.7 7 -1 7 C-1.020625 6.030625 -1.04125 5.06125 -1.0625 4.0625 C-1 1 -1 1 0 0 Z " fill="#F1F1F1" transform="translate(409,418)"/>
<path d="M0 0 C1.32 0 2.64 0 4 0 C4 2.31 4 4.62 4 7 C6.31 7 8.62 7 11 7 C11 8.32 11 9.64 11 11 C8.69 11 6.38 11 4 11 C4.33 15.95 4.66 20.9 5 26 C6.98 26.33 8.96 26.66 11 27 C11 28.32 11 29.64 11 31 C3.72727273 31.48484848 3.72727273 31.48484848 0.75 29.5 C-1.69466761 26.00761771 -1.43798423 22.84227203 -1.25 18.75 C-1.23195312 18.00492187 -1.21390625 17.25984375 -1.1953125 16.4921875 C-1.14835649 14.66090299 -1.07661652 12.83028351 -1 11 C-2.65 11 -4.3 11 -6 11 C-6 9.68 -6 8.36 -6 7 C-4.35 7 -2.7 7 -1 7 C-1.020625 6.030625 -1.04125 5.06125 -1.0625 4.0625 C-1 1 -1 1 0 0 Z " fill="#F1F1F1" transform="translate(143,418)"/>
<path d="M0 0 C1.4540625 0.0309375 1.4540625 0.0309375 2.9375 0.0625 C2.9375 2.0425 2.9375 4.0225 2.9375 6.0625 C1.2359375 6.2790625 1.2359375 6.2790625 -0.5 6.5 C-3.87027201 6.67421478 -3.87027201 6.67421478 -5.0625 8.0625 C-5.29951239 10.92127909 -5.48469182 13.76133297 -5.625 16.625 C-5.66818359 17.43130859 -5.71136719 18.23761719 -5.75585938 19.06835938 C-5.86225262 21.06618805 -5.96290888 23.0643207 -6.0625 25.0625 C-8.3725 25.0625 -10.6825 25.0625 -13.0625 25.0625 C-13.0625 17.1425 -13.0625 9.2225 -13.0625 1.0625 C-10.0925 1.0625 -7.1225 1.0625 -4.0625 1.0625 C-3.0625 0.0625 -3.0625 0.0625 0 0 Z " fill="#EEEEEE" transform="translate(324.0625,366.9375)"/>
<path d="M0 0 C2.4375 1.5625 2.4375 1.5625 4 4 C4.5625 7.4375 4.5625 7.4375 4 11 C1.52506641 14.42123173 0.11736219 15.79477021 -4.0625 16.5625 C-7 16 -7 16 -9.375 14.5 C-11.65700312 10.98922596 -11.81004807 8.07529338 -11 4 C-8.16250305 -0.53999512 -5.10870514 -0.72981502 0 0 Z " fill="#040404" transform="translate(497,429)"/>
<path d="M0 0 C2.70078753 2.70078753 2.29894358 4.24035172 2.3125 8 C2.32925781 9.0725 2.34601563 10.145 2.36328125 11.25 C2.18345703 12.61125 2.18345703 12.61125 2 14 C-1.51253146 16.34168764 -2.86469356 16.49623677 -7 16 C-9.875 14.5 -9.875 14.5 -12 12 C-12.94237143 8.00106731 -12.61136591 5.01894318 -10.5 1.5 C-6.78559093 -0.72864544 -4.29911397 -0.41604329 0 0 Z " fill="#030303" transform="translate(283,429)"/>
<path d="M0 0 C2.31 0 4.62 0 7 0 C7 7.92 7 15.84 7 24 C4.69 24 2.38 24 0 24 C0 16.08 0 8.16 0 0 Z " fill="#ECECEC" transform="translate(382,368)"/>
<path d="M0 0 C2.31 0 4.62 0 7 0 C7 7.92 7 15.84 7 24 C4.69 24 2.38 24 0 24 C0 16.08 0 8.16 0 0 Z " fill="#ECECEC" transform="translate(350,368)"/>
<path d="M0 0 C1.2065625 0.0309375 1.2065625 0.0309375 2.4375 0.0625 C2.4375 1.7125 2.4375 3.3625 2.4375 5.0625 C1.303125 5.371875 0.16875 5.68125 -1 6 C-4.35025099 6.69174531 -4.35025099 6.69174531 -5.5625 8.0625 C-5.79951239 10.92127909 -5.98469182 13.76133297 -6.125 16.625 C-6.16818359 17.43130859 -6.21136719 18.23761719 -6.25585938 19.06835938 C-6.36225262 21.06618805 -6.46290888 23.0643207 -6.5625 25.0625 C-8.2125 25.0625 -9.8625 25.0625 -11.5625 25.0625 C-11.5625 17.1425 -11.5625 9.2225 -11.5625 1.0625 C-8.89583333 1.0625 -6.22916667 1.0625 -3.5625 1.0625 C-2.5625 0.0625 -2.5625 0.0625 0 0 Z " fill="#E1E1E1" transform="translate(521.5625,423.9375)"/>
<path d="M0 0 C1.2065625 0.0309375 1.2065625 0.0309375 2.4375 0.0625 C2.4375 1.7125 2.4375 3.3625 2.4375 5.0625 C1.303125 5.371875 0.16875 5.68125 -1 6 C-4.35025099 6.69174531 -4.35025099 6.69174531 -5.5625 8.0625 C-5.79951239 10.92127909 -5.98469182 13.76133297 -6.125 16.625 C-6.16818359 17.43130859 -6.21136719 18.23761719 -6.25585938 19.06835938 C-6.36225262 21.06618805 -6.46290888 23.0643207 -6.5625 25.0625 C-8.2125 25.0625 -9.8625 25.0625 -11.5625 25.0625 C-11.5625 17.1425 -11.5625 9.2225 -11.5625 1.0625 C-8.89583333 1.0625 -6.22916667 1.0625 -3.5625 1.0625 C-2.5625 0.0625 -2.5625 0.0625 0 0 Z " fill="#E1E1E1" transform="translate(434.5625,423.9375)"/>
<path d="M0 0 C2.52017426 2.52017426 2.29730377 3.51499849 2.3125 7 C2.32925781 7.886875 2.34601563 8.77375 2.36328125 9.6875 C2.24339844 10.450625 2.12351563 11.21375 2 12 C-1.49124017 14.32749345 -2.89222251 14.50299316 -7 14 C-9.375 12.375 -9.375 12.375 -11 10 C-11.60605429 6.36367425 -11.47161336 4.71685231 -9.4375 1.625 C-6.13230302 -0.57846465 -3.89201406 -0.43244601 0 0 Z " fill="#0B0B0B" transform="translate(139,373)"/>
<path d="M0 0 C2 2 2 2 2.375 5.9375 C2.28635216 8.80551846 2.21085143 9.72167611 0.4375 12.0625 C-3.0211441 13.39274773 -5.4440159 12.85607025 -9 12 C-11 10 -11 10 -11.375 6.0625 C-11.28635216 3.19448154 -11.21085143 2.27832389 -9.4375 -0.0625 C-5.9788559 -1.39274773 -3.5559841 -0.85607025 0 0 Z " fill="#090909" transform="translate(543,179)"/>
<path d="M0 0 C0 3.96 0 7.92 0 12 C-2.80915474 13.40457737 -4.88810534 13.24895157 -8 13 C-10.375 12 -10.375 12 -12 10 C-12.56687256 7.22348136 -12.55439887 4.77776935 -12 2 C-8.84133987 -2.34315767 -4.70076383 -0.8618067 0 0 Z " fill="#050505" transform="translate(439,374)"/>
<path d="M0 0 C11.22 0 22.44 0 34 0 C34 1.32 34 2.64 34 4 C23.11 4 12.22 4 1 4 C0.67 2.68 0.34 1.36 0 0 Z " fill="#ECECEC" transform="translate(479,177)"/>
<path d="M0 0 C1.77049689 -0.05410687 3.54146849 -0.09284119 5.3125 -0.125 C6.29863281 -0.14820313 7.28476563 -0.17140625 8.30078125 -0.1953125 C11 0 11 0 14 2 C14.3125 4.5 14.3125 4.5 14 7 C12 9 12 9 9.1796875 9.1953125 C8.08914062 9.17210937 6.99859375 9.14890625 5.875 9.125 C4.77929688 9.10695313 3.68359375 9.08890625 2.5546875 9.0703125 C1.71164063 9.04710937 0.86859375 9.02390625 0 9 C0 6.03 0 3.06 0 0 Z " fill="#111111" transform="translate(71,365)"/>
<path d="M0 0 C0.66 0.33 1.32 0.66 2 1 C2 4.3 2 7.6 2 11 C-0.79870027 12.39935013 -2.90498792 12.25265405 -6 12 C-7.875 10.9375 -7.875 10.9375 -9 9 C-9.375 5.4375 -9.375 5.4375 -9 2 C-5.54337669 -0.30441554 -4.05142119 -0.25860135 0 0 Z " fill="#060606" transform="translate(237,177)"/>
<path d="M0 0 C1.32 0 2.64 0 4 0 C4 7.92 4 15.84 4 24 C2.68 24 1.36 24 0 24 C0 16.08 0 8.16 0 0 Z " fill="#FCFCFC" transform="translate(374,425)"/>
<path d="M0 0 C1.32 0 2.64 0 4 0 C4 7.92 4 15.84 4 24 C2.68 24 1.36 24 0 24 C0 16.08 0 8.16 0 0 Z " fill="#FCFCFC" transform="translate(337,425)"/>
<path d="M0 0 C6.93 0 13.86 0 21 0 C21 1.32 21 2.64 21 4 C14.07 4 7.14 4 0 4 C0 2.68 0 1.36 0 0 Z " fill="#ECECEC" transform="translate(480,186)"/>
<path d="M0 0 C0.8146875 0.00257813 1.629375 0.00515625 2.46875 0.0078125 C3.2834375 0.00523437 4.098125 0.00265625 4.9375 0 C6.96875 0.1328125 6.96875 0.1328125 7.96875 1.1328125 C8.21875 3.5703125 8.21875 3.5703125 7.96875 6.1328125 C4.49951119 8.44563837 3.04669425 8.55759836 -1.03125 8.1328125 C-2.96875 6.8828125 -2.96875 6.8828125 -4.03125 5.1328125 C-3.66082507 1.98420059 -3.36517432 0.22003063 0 0 Z " fill="#121212" transform="translate(447.03125,437.8671875)"/>
<path d="M0 0 C3.23503076 3.23503076 4.40880303 5.75680809 6 10 C6 10.99 6 11.98 6 13 C2.37 13 -1.26 13 -5 13 C-3.35 8.71 -1.7 4.42 0 0 Z " fill="#080808" transform="translate(248,422)"/>
<path d="M0 0 C3.63 0 7.26 0 11 0 C11.33 1.65 11.66 3.3 12 5 C10 7 10 7 7.6171875 7.1953125 C6.71226562 7.17210937 5.80734375 7.14890625 4.875 7.125 C3.50988281 7.09792969 3.50988281 7.09792969 2.1171875 7.0703125 C1.41851562 7.04710937 0.71984375 7.02390625 0 7 C0 4.69 0 2.38 0 0 Z " fill="#0B0B0B" transform="translate(171,170)"/>
<path d="M0 0 C3.74960517 0.08166109 3.74960517 0.08166109 6.0625 2.25 C7.0625 4.375 7.0625 4.375 7.0625 6.375 C2.4425 6.375 -2.1775 6.375 -6.9375 6.375 C-5.63510451 1.16541803 -5.37749278 0.51214217 0 0 Z " fill="#161616" transform="translate(167.9375,428.625)"/>
<path d="M0 0 C2.31 0 4.62 0 7 0 C7 3.3 7 6.6 7 10 C6.21625 9.814375 5.4325 9.62875 4.625 9.4375 C2.02910225 8.74037734 2.02910225 8.74037734 0 10 C0 6.7 0 3.4 0 0 Z " fill="#050505" transform="translate(535,196)"/>
<path d="M0 0 C0.33 1.65 0.66 3.3 1 5 C-1.76250036 6.38125018 -3.94731099 6.19079306 -7 6 C-7.66 5.34 -8.32 4.68 -9 4 C-9 3.01 -9 2.02 -9 1 C-6.04335481 -0.4783226 -3.25770263 -0.06032783 0 0 Z " fill="#0B0B0B" transform="translate(210,382)"/>
<path d="M0 0 C0.33 0 0.66 0 1 0 C1 1.65 1 3.3 1 5 C-0.3921875 5.185625 -0.3921875 5.185625 -1.8125 5.375 C-5.13925235 5.81533082 -5.13925235 5.81533082 -8 8 C-10.33199388 8.07905064 -12.66832622 8.08798769 -15 8 C-15.66 6.68 -16.32 5.36 -17 4 C-11.39 4 -5.78 4 0 4 C0 2.68 0 1.36 0 0 Z " fill="#3C3C3C" transform="translate(217,181)"/>
<path d="M0 0 C1.2065625 0.0309375 1.2065625 0.0309375 2.4375 0.0625 C3.0625 2.4375 3.0625 2.4375 3.4375 5.0625 C2.7775 5.7225 2.1175 6.3825 1.4375 7.0625 C-1.1875 6.6875 -1.1875 6.6875 -3.5625 6.0625 C-3.605221 4.39638095 -3.60313832 2.72867115 -3.5625 1.0625 C-2.5625 0.0625 -2.5625 0.0625 0 0 Z " fill="#E9E9E9" transform="translate(385.5625,357.9375)"/>
<path d="M0 0 C1.2065625 0.0309375 1.2065625 0.0309375 2.4375 0.0625 C3.0625 2.4375 3.0625 2.4375 3.4375 5.0625 C2.7775 5.7225 2.1175 6.3825 1.4375 7.0625 C-0.6875 6.6875 -0.6875 6.6875 -2.5625 6.0625 C-2.94468767 4.40635343 -3.27645102 2.73792976 -3.5625 1.0625 C-2.5625 0.0625 -2.5625 0.0625 0 0 Z " fill="#F3F3F3" transform="translate(353.5625,357.9375)"/>
<path d="M0 0 C3.1875 -0.25 3.1875 -0.25 6 0 C6.66 1.32 7.32 2.64 8 4 C4.37 4 0.74 4 -3 4 C-2.01 2.68 -1.02 1.36 0 0 Z " fill="#060606" transform="translate(402,373)"/>
<path d="M0 0 C1.98 0 3.96 0 6 0 C6.66 1.32 7.32 2.64 8 4 C4.7 4 1.4 4 -2 4 C-1.34 2.68 -0.68 1.36 0 0 Z " fill="#040404" transform="translate(292,373)"/>
<path d="M0 0 C1.98 0 3.96 0 6 0 C6.66 1.32 7.32 2.64 8 4 C4.7 4 1.4 4 -2 4 C-1.34 2.68 -0.68 1.36 0 0 Z " fill="#040404" transform="translate(103,373)"/>
<path d="M0 0 C2.31 0 4.62 0 7 0 C7 1.32 7 2.64 7 4 C4.69 4 2.38 4 0 4 C0 2.68 0 1.36 0 0 Z " fill="#0A0A0A" transform="translate(298,186)"/>
<path d="M0 0 C2.0625 0.4375 2.0625 0.4375 4 1 C4.33 2.32 4.66 3.64 5 5 C3.35 5.33 1.7 5.66 0 6 C-0.38218767 4.34385343 -0.71395102 2.67542976 -1 1 C-0.67 0.67 -0.34 0.34 0 0 Z " fill="#DDDDDD" transform="translate(374,415)"/>
<path d="M0 0 C2.97 0.495 2.97 0.495 6 1 C6.33 1.99 6.66 2.98 7 4 C4.03 4 1.06 4 -2 4 C-1.34 2.68 -0.68 1.36 0 0 Z " fill="#191919" transform="translate(202,176)"/>
<path d="M0 0 C2.0625 0.4375 2.0625 0.4375 4 1 C3.67 2.65 3.34 4.3 3 6 C1.68 5.67 0.36 5.34 -1 5 C-1 1 -1 1 0 0 Z " fill="#E3E3E3" transform="translate(338,415)"/>
</svg>
